<?xml version="1.0" encoding="UTF-8"?><svg id="_Слой_1" xmlns="http://www.w3.org/2000/svg" viewBox="0 0 841.9 595.3"><defs><style>.cls-1,.cls-2{fill:#fff;}.cls-3{fill:#999a95;}.cls-4{fill:#bababa;}.cls-5{fill:#c8c7c7;}.cls-6{fill:#ffcb73;}.cls-7{fill:#e8e8e3;}.cls-8{fill:#dedede;}.cls-9{fill:#d9d9d2;}.cls-10{opacity:.35;}.cls-11{fill:#767676;}.cls-2,.cls-12{stroke:#263339;stroke-miterlimit:10;stroke-width:.75px;}.cls-13{fill:#a3a39e;}.cls-14{fill:#fff9c9;opacity:.5;}.cls-14,.cls-15,.cls-16{isolation:isolate;}.cls-17{fill:#c3c2c2;}.cls-18{fill:#d6d7d7;}.cls-19{fill:#e3e3e2;}.cls-12{fill:#fcfcfc;}.cls-15{opacity:.09;}.cls-15,.cls-16{fill:#0c0d0d;}.cls-20{fill:#e1e1dc;}.cls-21{opacity:.45;}.cls-22{fill:#b0b1aa;}.cls-23{fill:#263238;}.cls-16{opacity:.13;}</style></defs><g><rect class="cls-9" x="205.3" y="165.9" width="464.5" height="355.5"/><rect class="cls-22" x="219.4" y="336.9" width="436.5" height="15.9"/><rect class="cls-7" x="219" y="335.3" width="436.5" height="4.4"/><path class="cls-15" d="M219,518s-6-158.5,31.3-231.2c37.3-72.7,74.7-123,74.7-123l-27.6-4.8-111.8,.7,2.9,345.2,30.5,13.1Z"/><path class="cls-15" d="M576.1,518s-6-158.5,31.3-231.2c37.3-72.7,74.7-123,74.7-123l-27.6-4.8-111.8,.7,2.9,345.2,30.5,13.1Z"/><rect class="cls-5" x="134.2" y="517.3" width="606.7" height="15.6"/><rect class="cls-18" x="120.9" y="532.9" width="633.1" height="17.6"/><rect class="cls-5" x="106.9" y="550.6" width="661.1" height="17.6"/><rect class="cls-18" x="91.2" y="568.4" width="692.7" height="17.6"/><path class="cls-17" d="M739.3,121.8l-10,12.4H144.7l-4.8-5.7c-.2-.9-.2-1.8-.1-2.8,.3-2.6,1.5-4.9,3.3-6.9l152.4-52.1h.1l31.3-10.7,70-23.9,40.3-13.8,302.1,103.5Z"/><polygon class="cls-13" points="219.4 117.4 436.8 45.5 655.9 117.4 219.4 117.4"/><rect class="cls-22" x="219.4" y="165.8" width="436.5" height="32.5"/><path class="cls-15" d="M341.1,410.7c.9-51.1,21.8-101.5,57.3-138.2s85.2-59.2,136.2-61.7c1.1-13.2-7.4-26.3-19.4-31.8,5.1-4.1,3.6-12.9-1.3-17.2-4.9-4.4-11.8-5.5-18.3-6.4-41.6-5.3-83.9-5.6-125.5-.6-12,1.4-25,3.8-33,12.8-11.2,12.6-8,31.8-6.2,48.6,3.5,32.7-1,65.6-3,98.4-2,32.7,.2,66,13.2,96.1Z"/><path class="cls-16" d="M452.3,130.2c-3.9,1.4-7.9,2.7-11.9,4H144.7l-4.8-5.7c-.2-.9-.2-1.8-.1-2.8,.3-2.6,1.5-4.9,3.3-6.9l152.4-52.1h.1c1.2-.3,2.4-.7,3.6-1,9.4-2.8,18.6-6.1,27.7-9.7,12.8-5,25.4-10.3,38.3-14.9,10-3.6,20.7-6.8,31.6-9,13.1-2.7,26.6-4,39.4-3.2-5.2,6.1-9.3,13.2-12,20.8h0c-3.9,10.7-5.1,22.3-3.3,33.5,2,12.7,7.8,24.6,16.3,34.3,4.3,4.9,9.4,9.2,15.1,12.7Z"/><polygon class="cls-19" points="739.3 139.4 135.1 139.4 140.3 129 734 129 739.3 139.4"/><path class="cls-18" d="M739.3,139.4H135.1l-.2,7.7c-.3,10.3,8,18.8,18.3,18.8H721.2c10.3,0,18.5-8.5,18.3-18.8l-.2-7.7Z"/><path class="cls-19" d="M109.5,136.8h0c3.6,1.6,8.1,1.6,11.8,0L437.2,28V9.3L109.7,121.8c-7.8,3.3-7.9,11.7-.2,15Z"/><path class="cls-19" d="M761.2,136.2h0c-3.4,1.1-7.4,1-10.6-.4L437.2,28V9.3l325,111.4c8.3,3.6,7.7,12.6-1,15.5Z"/><rect class="cls-4" x="167.6" y="189" width="51.8" height="321.1"/><path class="cls-8" d="M221.5,189h-55.9c-2.1,0-3.7-1.7-3.7-3.7h0c0-2.1,1.7-3.7,3.7-3.7h55.9c2.1,0,3.7,1.7,3.7,3.7h0c0,2-1.7,3.7-3.7,3.7Z"/><path class="cls-5" d="M223.6,181.5h-60.2c-4.1,0-7.5-3.3-7.5-7.5v-8.2h75.1v8.2c0,4.2-3.3,7.5-7.4,7.5Z"/><path class="cls-20" d="M221.5,509.8h-55.9c-2.1,0-3.7,1.7-3.7,3.7h0c0,2.1,1.7,3.7,3.7,3.7h55.9c2.1,0,3.7-1.7,3.7-3.7h0c0-2-1.7-3.7-3.7-3.7Z"/><path class="cls-22" d="M223.6,517.3h-60.2c-4.1,0-7.5,3.3-7.5,7.5v8.2h75.1v-8.2c0-4.2-3.3-7.5-7.4-7.5Z"/><rect class="cls-4" x="303.2" y="189" width="51.8" height="321.1"/><path class="cls-8" d="M357.1,189h-55.9c-2.1,0-3.7-1.7-3.7-3.7h0c0-2.1,1.7-3.7,3.7-3.7h55.9c2.1,0,3.7,1.7,3.7,3.7h0c0,2-1.7,3.7-3.7,3.7Z"/><path class="cls-5" d="M359.2,181.5h-60.2c-4.1,0-7.5-3.3-7.5-7.5v-8.2h75.1v8.2c.1,4.2-3.3,7.5-7.4,7.5Z"/><path class="cls-20" d="M357.1,509.8h-55.9c-2.1,0-3.7,1.7-3.7,3.7h0c0,2.1,1.7,3.7,3.7,3.7h55.9c2.1,0,3.7-1.7,3.7-3.7h0c0-2-1.7-3.7-3.7-3.7Z"/><path class="cls-22" d="M359.2,517.3h-60.2c-4.1,0-7.5,3.3-7.5,7.5v8.2h75.1v-8.2c.1-4.2-3.3-7.5-7.4-7.5Z"/><rect class="cls-4" x="520.3" y="189" width="51.8" height="321.1"/><path class="cls-8" d="M574.1,189h-55.9c-2.1,0-3.7-1.7-3.7-3.7h0c0-2.1,1.7-3.7,3.7-3.7h55.9c2.1,0,3.7,1.7,3.7,3.7h0c.1,2-1.6,3.7-3.7,3.7Z"/><path class="cls-5" d="M576.2,181.5h-60.2c-4.1,0-7.5-3.3-7.5-7.5v-8.2h75.1v8.2c.1,4.2-3.2,7.5-7.4,7.5Z"/><path class="cls-20" d="M574.1,509.8h-55.9c-2.1,0-3.7,1.7-3.7,3.7h0c0,2.1,1.7,3.7,3.7,3.7h55.9c2.1,0,3.7-1.7,3.7-3.7h0c.1-2-1.6-3.7-3.7-3.7Z"/><path class="cls-22" d="M576.2,517.3h-60.2c-4.1,0-7.5,3.3-7.5,7.5v8.2h75.1v-8.2c.1-4.2-3.2-7.5-7.4-7.5Z"/><rect class="cls-4" x="655.9" y="189" width="51.8" height="321.1"/><path class="cls-8" d="M709.7,189h-55.9c-2.1,0-3.7-1.7-3.7-3.7h0c0-2.1,1.7-3.7,3.7-3.7h55.9c2.1,0,3.7,1.7,3.7,3.7h0c.1,2-1.6,3.7-3.7,3.7Z"/><path class="cls-5" d="M711.9,181.5h-60.2c-4.1,0-7.5-3.3-7.5-7.5v-8.2h75.1v8.2c0,4.2-3.3,7.5-7.4,7.5Z"/><path class="cls-20" d="M709.7,509.8h-55.9c-2.1,0-3.7,1.7-3.7,3.7h0c0,2.1,1.7,3.7,3.7,3.7h55.9c2.1,0,3.7-1.7,3.7-3.7h0c.1-2-1.6-3.7-3.7-3.7Z"/><path class="cls-22" d="M711.9,517.3h-60.2c-4.1,0-7.5,3.3-7.5,7.5v8.2h75.1v-8.2c0-4.2-3.3-7.5-7.4-7.5Z"/><rect class="cls-11" x="373.6" y="381.4" width="127.9" height="135.9"/><rect class="cls-22" x="380" y="386.8" width="55.6" height="130.5"/><rect class="cls-14" x="385.1" y="391.7" width="45.2" height="120.8"/><path class="cls-22" d="M422.1,461.4h0c-1.3,0-2.3-1-2.3-2.3v-10.3c0-1.3,1-2.3,2.3-2.3h0c1.3,0,2.3,1,2.3,2.3v10.3c-.1,1.2-1.1,2.3-2.3,2.3Z"/><rect class="cls-22" x="439.65" y="386.8" width="55.6" height="130.5"/><rect class="cls-14" x="444.4" y="391.7" width="46.2" height="120.8"/><path class="cls-3" d="M453.2,461.4h0c1.3,0,2.3-1,2.3-2.3v-10.3c0-1.3-1-2.3-2.3-2.3h0c-1.3,0-2.3,1-2.3,2.3v10.3c0,1.2,1.1,2.3,2.3,2.3Z"/><g><rect class="cls-11" x="235" y="385.3" width="52.6" height="92"/><rect class="cls-14" x="238.2" y="389.7" width="46.1" height="83.1"/><g class="cls-21"><polygon class="cls-1" points="284.4 389.7 284.4 406.9 238.2 434.8 238.2 417 283.4 389.7 284.4 389.7"/></g><g class="cls-21"><polygon class="cls-1" points="284.4 416.2 284.4 443.7 238.2 471.5 238.2 444 284.4 416.2"/></g><g><rect class="cls-11" x="259.8" y="389.7" width="3.1" height="83.1"/><rect class="cls-11" x="238.3" y="403.4" width="46.1" height="3.8"/><rect class="cls-11" x="238.3" y="427.4" width="46.1" height="3.8"/><rect class="cls-11" x="238.3" y="450.1" width="46.1" height="3.8"/></g></g><rect class="cls-11" x="235" y="216.4" width="52.6" height="92"/><rect class="cls-14" x="238.2" y="220.8" width="46.1" height="83.1"/><g class="cls-21"><polygon class="cls-1" points="284.4 224.6 284.4 242.4 238.2 270.2 238.2 252.4 284.4 224.6"/></g><g class="cls-21"><polygon class="cls-1" points="284.4 251.6 284.4 279.1 243.3 303.9 238.2 303.9 238.2 279.4 284.4 251.6"/></g><g><rect class="cls-11" x="259.8" y="220.8" width="3.1" height="83.1"/><rect class="cls-11" x="238.3" y="234.5" width="46.1" height="3.8"/><rect class="cls-11" x="238.3" y="258.5" width="46.1" height="3.8"/><rect class="cls-11" x="238.3" y="281.2" width="46.1" height="3.8"/></g><rect class="cls-11" x="365.5" y="216.4" width="52.6" height="92"/><rect class="cls-14" x="368.7" y="220.8" width="46.1" height="83.1"/><g class="cls-21"><polygon class="cls-1" points="414.9 220.8 414.9 238.4 368.7 266.3 368.7 248.5 414.6 220.8 414.9 220.8"/></g><g class="cls-21"><polygon class="cls-1" points="414.9 247.6 414.9 275.2 368.7 303 368.7 275.5 414.9 247.6"/></g><g><rect class="cls-11" x="390.3" y="220.8" width="3.1" height="83.1"/><rect class="cls-11" x="368.7" y="234.5" width="46.1" height="3.8"/><rect class="cls-11" x="368.7" y="258.5" width="46.1" height="3.8"/><rect class="cls-11" x="368.7" y="281.2" width="46.1" height="3.8"/></g><rect class="cls-11" x="461.9" y="216.4" width="52.6" height="92"/><rect class="cls-14" x="465.1" y="220.8" width="46.1" height="83.1"/><g class="cls-21"><polygon class="cls-1" points="511.3 220.8 511.3 237.9 465.1 265.8 465.1 248 510.2 220.8 511.3 220.8"/></g><g class="cls-21"><polygon class="cls-1" points="511.3 247.1 511.3 274.7 465.1 302.5 465.1 275 511.3 247.1"/></g><g><rect class="cls-11" x="486.7" y="220.8" width="3.1" height="83.1"/><rect class="cls-11" x="465.2" y="234.5" width="46.1" height="3.8"/><rect class="cls-11" x="465.2" y="258.5" width="46.1" height="3.8"/><rect class="cls-11" x="465.2" y="281.2" width="46.1" height="3.8"/></g><rect class="cls-11" x="587.7" y="216.4" width="52.6" height="92"/><rect class="cls-14" x="590.9" y="220.8" width="46.1" height="83.1"/><g class="cls-21"><polygon class="cls-1" points="637 221.4 637 239.2 590.9 267 590.9 249.2 637 221.4"/></g><g class="cls-21"><polygon class="cls-1" points="637 248.4 637 275.9 590.9 303.8 590.9 276.2 637 248.4"/></g><g><rect class="cls-11" x="612.4" y="220.8" width="3.1" height="83.1"/><rect class="cls-11" x="590.9" y="234.5" width="46.1" height="3.8"/><rect class="cls-11" x="590.9" y="258.5" width="46.1" height="3.8"/><rect class="cls-11" x="590.9" y="281.2" width="46.1" height="3.8"/></g><rect class="cls-11" x="587.7" y="381.4" width="52.6" height="92"/><rect class="cls-14" x="590.9" y="385.9" width="46.1" height="83.1"/><g class="cls-21"><polygon class="cls-1" points="637 385.9 637 403.7 590.9 431.6 590.9 413.8 637 385.9"/></g><g class="cls-21"><polygon class="cls-1" points="637 413 637 440.5 590.9 468.3 590.9 440.8 637 413"/></g><g><rect class="cls-11" x="612.4" y="385.9" width="3.1" height="83.1"/><rect class="cls-11" x="590.9" y="399.5" width="46.1" height="3.8"/><rect class="cls-11" x="590.9" y="423.6" width="46.1" height="3.8"/><rect class="cls-11" x="590.9" y="446.3" width="46.1" height="3.8"/></g><path class="cls-20" d="M177.3,505.3h0c-2.3,0-4.1-1.9-4.1-4.1V197.4c0-2.3,1.9-4.1,4.1-4.1h0c2.3,0,4.1,1.9,4.1,4.1V501.2c.1,2.3-1.8,4.1-4.1,4.1Z"/><path class="cls-20" d="M192.7,505.3h0c-2.3,0-4.1-1.9-4.1-4.1V197.4c0-2.3,1.9-4.1,4.1-4.1h0c2.3,0,4.1,1.9,4.1,4.1V501.2c0,2.3-1.8,4.1-4.1,4.1Z"/><path class="cls-20" d="M208.1,505.3h0c-2.3,0-4.1-1.9-4.1-4.1V197.4c0-2.3,1.9-4.1,4.1-4.1h0c2.3,0,4.1,1.9,4.1,4.1V501.2c0,2.3-1.8,4.1-4.1,4.1Z"/><path class="cls-20" d="M313.8,505.3h0c-2.3,0-4.1-1.9-4.1-4.1V197.4c0-2.3,1.9-4.1,4.1-4.1h0c2.3,0,4.1,1.9,4.1,4.1V501.2c0,2.3-1.9,4.1-4.1,4.1Z"/><path class="cls-20" d="M329.1,505.3h0c-2.3,0-4.1-1.9-4.1-4.1V197.4c0-2.3,1.9-4.1,4.1-4.1h0c2.3,0,4.1,1.9,4.1,4.1V501.2c.1,2.3-1.8,4.1-4.1,4.1Z"/><path class="cls-20" d="M344.5,505.3h0c-2.3,0-4.1-1.9-4.1-4.1V197.4c0-2.3,1.9-4.1,4.1-4.1h0c2.3,0,4.1,1.9,4.1,4.1V501.2c0,2.3-1.8,4.1-4.1,4.1Z"/><path class="cls-20" d="M530.8,505.3h0c-2.3,0-4.1-1.9-4.1-4.1V197.4c0-2.3,1.9-4.1,4.1-4.1h0c2.3,0,4.1,1.9,4.1,4.1V501.2c0,2.3-1.8,4.1-4.1,4.1Z"/><path class="cls-20" d="M546.2,505.3h0c-2.3,0-4.1-1.9-4.1-4.1V197.4c0-2.3,1.9-4.1,4.1-4.1h0c2.3,0,4.1,1.9,4.1,4.1V501.2c0,2.3-1.8,4.1-4.1,4.1Z"/><path class="cls-20" d="M561.5,505.3h0c-2.3,0-4.1-1.9-4.1-4.1V197.4c0-2.3,1.9-4.1,4.1-4.1h0c2.3,0,4.1,1.9,4.1,4.1V501.2c.1,2.3-1.8,4.1-4.1,4.1Z"/><path class="cls-20" d="M666.4,505.3h0c-2.3,0-4.1-1.9-4.1-4.1V197.4c0-2.3,1.9-4.1,4.1-4.1h0c2.3,0,4.1,1.9,4.1,4.1V501.2c.1,2.3-1.8,4.1-4.1,4.1Z"/><path class="cls-20" d="M681.8,505.3h0c-2.3,0-4.1-1.9-4.1-4.1V197.4c0-2.3,1.9-4.1,4.1-4.1h0c2.3,0,4.1,1.9,4.1,4.1V501.2c0,2.3-1.8,4.1-4.1,4.1Z"/><path class="cls-20" d="M697.2,505.3h0c-2.3,0-4.1-1.9-4.1-4.1V197.4c0-2.3,1.9-4.1,4.1-4.1h0c2.3,0,4.1,1.9,4.1,4.1V501.2c0,2.3-1.9,4.1-4.1,4.1Z"/><g class="cls-10"><polygon class="cls-1" points="430.4 413.7 430.4 440.4 385.1 467.7 385.1 441 430.4 413.7"/><polygon class="cls-1" points="490.5 391.7 490.5 404.1 444.4 432 444.4 405.3 466.9 391.7 490.5 391.7"/></g><g class="cls-10"><polygon class="cls-1" points="430.4 454.3 430.4 495.6 402.4 512.4 385.1 512.4 385.1 481.6 430.4 454.3"/><polygon class="cls-1" points="490.5 418 490.5 459.3 444.4 487.1 444.4 445.8 490.5 418"/></g></g><g><path class="cls-23" d="M395.52,442.41c-.2,2.31-.37,4.38-.56,6.44-.31,3.33-.64,6.65-.95,9.98-.06,.62-.14,1.26-.06,1.87,.67,4.93,.65,9.89,.51,14.85-.21,7.17-.5,14.34-.76,21.51-.07,1.85-.05,3.72-.32,5.54-.28,1.9-.75,3.79-1.34,5.61-2.34,7.16-4.77,14.3-7.16,21.45-.43,1.29-.85,2.59-1.23,3.9-.07,.25,.05,.56,.08,.84,.26-.09,.54-.15,.79-.26,.43-.19,.83-.47,1.27-.6,1.46-.45,2.5,.25,2.22,1.76-.3,1.57-.94,3.12-1.7,4.53-1.15,2.13-2.08,2.7-4.43,3.37,.22,1.68,.69,3.27,1.65,4.7,.07,.1,.2,.16,.23,.26,.19,.55,.61,1.2,.45,1.62-.14,.39-.91,.72-1.42,.76-1.73,.15-3.48,.11-5.15-.5-1.28-.46-2.2-1.24-2.37-2.71-.07-.59-.32-1.19-.27-1.76,.1-1.04-.5-1.48-1.23-1.93-1.65-1.03-2.29-3.11-1.52-4.9,.32-.74,.74-1.43,1.05-2.16,.2-.48,.31-1,.44-1.51,.36-1.32,.72-2.63,1.06-3.95,.95-3.71,1.6-7.42,1.28-11.31-.35-4.22-.41-8.47-.62-12.71-.16-3.19-.17-6.4-.57-9.56-.39-3.12-1.14-6.19-1.83-9.27-.95-4.26-2.01-8.5-2.97-12.75-.27-1.18-.29-2.42-.48-3.63-.08-.52-.26-1.03-.44-1.53-.5-1.42-.99-2.85-1.57-4.25-.24-.58-.59-1.14-1.01-1.59-2.1-2.29-4.25-4.55-6.37-6.83-.41-.44-.76-.8-1.45-.86-.45-.04-1.03-.49-1.25-.92-.4-.78-.45-1.74-.85-2.52-.92-1.8-.38-3.41,.18-5.18,1.53-4.83,2.85-9.73,4.26-14.59,.82-2.82,1.66-5.62,2.49-8.43,.23-.79,.72-1.37,1.47-1.67,3.19-1.27,6.38-2.55,9.6-3.75,.73-.27,1.16-.46,1.2-1.41,.05-1.33,.27-2.73,1.9-3.16,.1-.03,.22-.12,.28-.21,.28-.49-.01-2.68-.36-3.2-.83-1.26-1.76-2.48-2.4-3.83-.49-1.04-.59-2.27-.9-3.41-.14-.51-.3-1.02-.54-1.48-.46-.91-.39-1.74,.12-2.62,.25-.44,.39-1,.4-1.52,.05-1.51,.9-2.6,2.34-2.93,.83-.19,1.64-.45,2.45-.73,1.42-.48,2.76-.46,4.04,.45,.31,.22,.77,.2,1.15,.35,.73,.27,1.46,.55,2.17,.88,.92,.44,1.78,1.01,2.73,1.38,1,.4,1.34,.94,.98,1.98-.07,.2-.13,.4-.24,.57-.47,.71-1.07,1.36-1.4,2.13-.33,.76-.38,1.64-.54,2.4,.33,.06,.73,.14,1.32,.26-.13,.8-.27,1.5-.35,2.22-.1,.9-.21,1.81-.22,2.71-.01,.77,.13,1.55,.15,2.32,.05,2.19-.33,2.68-2.27,3.26,.17,.91,.31,1.81,.52,2.69,.06,.25,.3,.57,.53,.64,3.23,1,6.46,1.97,9.7,2.92,1.11,.33,2.02,.9,2.39,2.04,.95,2.93,1.81,5.88,2.78,8.8,1.44,4.33,2.94,8.64,4.45,12.95,.16,.46,.58,.82,.85,1.25,.25,.4,.5,.81,.64,1.26,.26,.81,.49,1.64,.63,2.48,.08,.47,.11,1.1-.14,1.44-.52,.71-.41,1.4-.22,2.12,.52,2.01,1.12,4,1.58,6.03,.38,1.65,1.57,2.74,2.65,3.82,1.02,1.02,1.26,1.98,.7,3.25-.33,.76-.61,1.55-.94,2.31-.48,1.1-1.93,1.68-2.99,1.17-.25-.12-.52-.36-.61-.61-.37-1.03-.68-2.07-.99-3.12-.08-.25-.16-.56-.09-.79,.4-1.2-.19-1.94-.93-2.81-2.06-2.43-3.61-5.21-5-8.09-.14-.3-.49-.62-.79-.69-2.19-.53-3.17-2.31-2.93-4.02,.29-2.05-.89-3.36-1.38-5-.37-1.23-.96-2.4-1.55-3.82Z"/><path d="M393.5,459.09c.14-.98,.3-1.83,.38-2.69,.36-3.68,.66-7.36,1.05-11.04,.25-2.4,.24-4.71-.81-6.98-.46-.99-.82-2.22-.69-3.27,.26-2.04,.76-4.08,1.42-6.03,.74-2.15,1.77-4.2,3.64-5.76-.64-.24-1.24-.49-1.85-.68-3.31-1.02-6.62-2.05-9.94-3.01-2.8-.81-5.71-1.31-8.53-.44-4.14,1.28-8.21,2.81-12.27,4.35-1.65,.62-1.74,1.03-1.3,2.76,.84,3.29,1.81,6.56,2.54,9.88,.86,3.91,1.59,7.85,2.26,11.8,.42,2.46,.62,4.96,.94,7.44,.15,1.17,.33,2.34,.52,3.65h22.63Z"/><path d="M398.67,450.65c.1,.58,.15,.87,.21,1.16,.38,1.98,1.22,2.9,3.02,3.09,2.09,.22,4.1-.1,5.89-1.33,.97-.67,1.21-1.59,.84-2.7-.55-1.65-.8-3.42-2.1-4.72-1.43-4.17-2.89-8.33-4.28-12.52-1-3-1.86-6.05-2.88-9.04-.39-1.15-.84-1.14-1.63-.17-.09,.11-.16,.25-.25,.37-1.62,2.27-2.65,4.83-3.32,7.52-.45,1.83-.65,3.67,.09,5.52,1.64,4.06,3.23,8.14,4.85,12.2,.05,.12,.19,.22,.31,.28,2.25,1.13,4.52,1.54,6.78-.19,.43-.33,.84-.69,1.26-1.04,.03,.2-.03,.32-.12,.41-1.91,2.11-4.19,2.59-7.07,1.55-.47-.17-.97-.24-1.59-.4Z"/><path d="M364.01,425.28c-.46,1.36-.95,2.57-1.27,3.82-1.88,7.34-3.74,14.68-6.29,21.82-.25,.69,.04,.96,.63,.85,2.48-.43,4.95-.9,7.42-1.41,.3-.06,.68-.34,.79-.62,.77-1.89,1.4-3.85,2.23-5.7,.64-1.42,.62-2.75,.23-4.21-1.27-4.79-2.48-9.6-3.75-14.56Z"/><path d="M402.39,455.34c2.34,4.86,4.91,9.35,9.47,12.32-.09,.09-.17,.18-.26,.28-.96-.73-1.92-1.46-2.88-2.19l-.3,.18c.26,1.29,.52,2.58,.78,3.87,.11,.02,.21,.04,.32,.07,.38-.53,.76-1.06,1.14-1.59,.04,.01,.08,.03,.12,.04-.14,.4-.27,.8-.41,1.21,.2,.1,.42,.21,.6,.3-.52,.21-1,.4-1.5,.61,.22,.76,.79,.67,1.31,.65,.73-.03,1.31-.36,1.61-1.06,.3-.71,.51-1.45,.82-2.16,.71-1.62,.74-1.68-.51-2.94-1.61-1.64-2.77-3.5-3.23-5.8-.37-1.82-.89-3.6-1.36-5.47-1.63,1.38-3.58,1.64-5.72,1.68Z"/><path d="M360.23,456.96c.08,.16,.1,.25,.15,.31,2.24,2.86,4.75,5.45,7.44,7.86,.51,.46,1.21,.71,1.92,1.11,.16-1.4,.25-2.56,.43-3.7,.11-.72-.06-1.22-.5-1.82-1.32-1.79-2.51-3.69-3.76-5.54-1.62,1.31-3.58,1.62-5.68,1.77Z"/><path d="M370.13,460.95c.12-.04,.24-.07,.37-.11-.23-5.94-1.34-11.78-2.11-17.7-.14,.08-.21,.1-.23,.14-.8,2.04-1.61,4.08-2.4,6.13-.15,.4-.15,.73,.13,1.2,.57,.95,1.51,1.99,.82,3.17-.51,.88-.36,1.46,.2,2.12,.11,.13,.17,.31,.27,.46,.98,1.53,1.97,3.06,2.95,4.59Z"/><path d="M356.82,452.18c.29,1.07,.51,2.02,.8,2.96,.21,.66,.49,1.34,1.31,1.4,1.93,.15,3.85-.03,5.58-.94,1.8-.95,2.71-2.15,1.37-4.41-.37-.62-.72-.69-1.34-.53-1.53,.39-3.07,.75-4.62,1.06-1.03,.21-2.07,.31-3.11,.46Z"/><path d="M386.75,419.29c.1-1.48-.39-2.73-1.11-3.09-1.66-.83-3.41-1.2-5.27-1.13-2.79,.11-3.65,.85-4.05,3.61-.02,.16-.05,.31-.1,.59,3.56-1.03,7.03-1.05,10.54,.02Z"/><path d="M378.42,414.92c1.27-.07,2.45-.26,3.6-.15,1.13,.11,2.24,.53,3.41,.82-.06-.54-.12-1.11-.19-1.67,.05,0,.11-.01,.16-.02,.2,.43,.4,.87,.6,1.3,.09,.02,.17,.04,.26,.06,.24-.52,.66-1.02,.68-1.55,.03-.88-.07-1.8-.35-2.63-.16-.48-.7-.94-1.18-1.17-.54-.26-.58,.39-.74,.74-.45,1.02-1.21,1.72-2.3,1.88-1.19,.17-2.41,.18-3.66,.26-.08,.59-.19,1.37-.29,2.11Z"/><path d="M392.26,496.41c.08,.01,.17,.02,.25,.04,.37-11.15,.75-22.31,1.12-33.46-.09,0-.18,0-.27,0-.37,11.14-.74,22.29-1.11,33.43Z"/><path d="M381.35,507.96c1.01-9.35,.55-18.7,.03-28.05,.27,9.35,.63,18.7-.03,28.05Z"/><path d="M376.3,526.72c.06,.02,.13,.03,.19,.05,.43-1.67,.78-3.36,1.3-5,1.85-5.85,3.76-11.68,5.66-17.51,.07-.21,.37-.42,.59-.48,1.82-.45,3.65-.87,5.48-1.3,.14-.03,.28-.05,.42-.07-.08-.07-.16-.13-.24-.2-1.89,.44-3.76,.92-5.66,1.28-.58,.11-.78,.39-.92,.88-.36,1.28-.69,2.58-1.11,3.84-1.38,4.16-2.84,8.29-4.18,12.47-.63,1.97-1.04,4.01-1.55,6.02Z"/><path d="M386.87,406c-1.87,.79-2.52,2.14-2.02,3.33,.72,.33,1.23,.57,1.77,.81,.08-1.36,.16-2.68,.25-4.15Z"/><path d="M382.86,548.58c-1.82-1.95-2.18-2.54-3.2-5.31-.27-.72-.52-1.46-.83-2.16-.96-2.11-3.84-3.49-5.78-2.8,.05,.03,.09,.09,.14,.09,.27,.01,.53,.01,.8,.01,1.82,0,3.29,.77,4.26,2.28,.52,.8,.79,1.78,1.12,2.69,.73,2.04,1.66,3.94,3.5,5.2Z"/><path d="M387.57,410.15c.55-.42,1.54-3.16,1.35-3.77-.05-.17-.31-.45-.35-.43-.21,.1-.47,.26-.56,.46-.57,1.18-.6,2.44-.43,3.74Z"/><path d="M369.45,470.18c.06-.01,.12-.02,.18-.04,0-.71-.09-1.44,.02-2.13,.18-1.14-.18-1.84-1.32-2.06-.07-.01-.16,0-.35,0,.5,1.45,.99,2.84,1.48,4.23Z"/><path d="M380.67,460.94l-.02,.15h11.48c0-.05,0-.1,0-.15h-11.46Z"/><path d="M380.06,461.12c0-.11,0-.21-.01-.32-2.89,.11-5.77,.22-8.66,.33,0,.09,0,.18,.01,.28,2.89-.1,5.77-.19,8.66-.29Z"/><path d="M379.51,477.5c-2.75-.88-5.6-1.52-7.92-3.42,2.19,2.2,5.05,2.84,7.92,3.42Z"/><path d="M381.87,478.77c.07,.05,.15,.09,.22,.14,1-2.43,1.99-4.86,2.99-7.29l-.23-.1c-.99,2.42-1.98,4.83-2.97,7.25Z"/><path d="M387.4,535.84c-1.01,2.27-2.47,4.21-4.16,5.98,2.03-1.55,3.34-3.6,4.16-5.98Z"/><path d="M389.42,498.92c0-.09-.01-.18-.02-.27-2.14,.12-4.29,.25-6.43,.37,0,.1,.01,.21,.02,.31,2.14-.14,4.29-.27,6.43-.41Z"/><path d="M379.83,471.17c-.09,.02-.17,.04-.26,.06,.43,1.99,.86,3.99,1.28,5.98l.25-.06c-.42-2-.85-3.99-1.27-5.99Z"/><path d="M388.34,501.24c0-.08,0-.16-.01-.25-1.8,.11-3.61,.21-5.41,.32,0-.02,0-.05,0-.07h5.42Z"/><path class="cls-23" d="M232.62,555.21c-1.29,2.41-2.46,4.57-3.61,6.74-1.33,2.52-2.65,5.05-3.98,7.56-2.47,4.66-2.43,9.27,.25,13.84,.19,.33,.11,.84,.15,1.26-.38,.03-.79,.18-1.12,.07-1-.33-1.98-.74-2.96-1.14-1.99-.82-2.79-2.44-2.9-4.5-.05-.9-.09-1.79-.15-2.69-.02-.25-.1-.49-.16-.73-.09-.03-.18-.05-.26-.08-.21,.35-.45,.69-.63,1.06-.37,.74-.67,1.52-1.07,2.25-.11,.2-.43,.28-.66,.42-.07-.27-.25-.57-.19-.81,.15-.6,.4-1.18,.63-1.76,.21-.54,.31-1.02-.48-1.05,.51-2.6,1.34-4.88,3.92-6.09,1.37-.64,1.95-2.08,2.37-3.42,.99-3.17,1.86-6.37,2.69-9.59,.83-3.23,1.83-6.4,3.41-9.33,.91-1.68,2.04-3.24,3.08-4.87-2.48,.37-4.88,.01-7.26-.61-1.37-.36-1.82-1.01-1.52-2.42,.41-1.97,.94-3.92,1.4-5.89,.68-2.91,.23-5.72-.59-8.53-1.19-4.03-2.09-8.13-2.05-12.37,.05-5,1.62-9.51,4.41-13.62,1.07-1.57,2.2-3.12,2.15-5.17-.01-.41-.04-.85-.21-1.21-1.17-2.45-2.38-4.89-3.56-7.3-.61,2.57-1.04,5.23-1.87,7.76-1.51,4.59-3.21,9.12-4.9,13.65-.74,1.97-1.65,3.88-2.45,5.83-.19,.48-.31,1.03-.31,1.54,0,1.7-.54,3.22-1.44,4.61-.28,.43-.77,.71-1.28,.95,1.39-1.39,1.94-3.14,2.37-5.24-1.56,1.41-3.54,2-4.24,4.03,.96,1.01,1.04,.99,1.99-.71-.07,1.59-.91,2.63-2.03,3.44-.2,.15-.89-.01-1.03-.24-1.49-2.33-1.06-4.98,.86-6.8,1.3-1.23,2.04-2.77,2.48-4.45,1.11-4.28,2.14-8.58,3.21-12.86,.68-2.73,1.37-5.46,2.04-8.17-1.23-.49-2.33-.93-3.43-1.39-2.51-1.04-3.52-3.12-3.72-5.69-.06-.84-.03-1.72,.18-2.52,.18-.69,.68-1.29,1.02-1.9-.61-.18-2.04,1.13-2.2,2.57-.14,1.23,.13,2.5,.22,3.71-2.04-.51-3.03-2.46-3.14-4.4-.15-2.76,1.33-4.67,3.34-6.25,.53-.42,1.11-.79,1.71-1.1,3.07-1.59,4.61-4.1,4.69-7.59,.05-2.18,.13-4.36,.37-6.52,.21-1.91,1.04-3.56,2.57-4.82,1.43-1.19,3.08-1.37,4.82-1.27,.09,0,.17,.03,.26,.05,1.19,.24,2.16,.37,3.01-1.01,.49-.79,1.82-1.04,2.76-1.56,.71-.39,1.51-.69,2.08-1.23,1.79-1.68,4.59-2.25,6.65-1.27,2.32,1.1,3.31,4.64,1.53,6.99-1.14,1.51-.93,2.53,.73,3.44,.57,.31,.73,.78,.43,1.13-1.22,1.41-.83,3.22-1.33,4.8-.16,.51-.28,1.05-.53,1.51-.41,.77-1.05,1.18-1.97,.97-.25-.06-.51-.04-.79-.05-.14,.8-.02,1.36,.45,2.02,.5,.7,.67,1.68,.85,2.56,.09,.44,.2,.68,.63,.8,1.67,.45,3.33,.93,5,1.4,2.48,.7,3.19,1.67,3.46,4.3,.4,3.88-.21,7.68-.67,11.5-.31,2.6-.64,5.2-.96,7.8-.19,1.51,.73,2.67,1.25,3.94,1.21,2.97,2.46,5.92,3.74,8.86,.73,1.69,1.45,3.4,3.13,4.41,.6,.36,1.21,.74,1.72,1.22,1.56,1.47,1.06,5.16-.88,5.96-.52,.22-1.43-.04-1.94-.4-1.03-.71-2.13-1.5-1.85-3.08,.02-.1-.05-.22-.1-.33-1.67-3.65-3.83-7.01-5.99-10.37-.4-.62-.78-1.24-1.36-1.79,.21,1.6,.44,3.19,.62,4.79,.51,4.55,.84,9.1,.5,13.68-.27,3.72-.95,7.37-1.73,11.01-.19,.86,.22,1.86,.37,2.79,.06,.38,.14,.76,.25,1.13,.5,1.64,.12,2.27-1.63,3.12-.82,.4-1.24,.89-1.39,1.74-.05,.26-.12,.54-.26,.75-1.16,1.79-.7,3.74-.53,5.64,.21,2.4,.49,4.8,.8,7.19,.41,3.28,.81,6.56,1.34,9.81,.37,2.22,.89,4.43,1.49,6.59,.52,1.87,1.68,3.39,3.05,4.73,.71,.7,1.59,.46,2.42,.54,.52,.05,1.03,.24,1.55,.37-.32,.43-.57,.96-.98,1.28-.79,.62-1.65,1.15-2.52,1.65-1.11,.65-2.23,.51-3.24-.22-.64-.47-1.2-1.06-1.79-1.59-.17-.16-.31-.39-.5-.48-.54-.25-1.1-.44-1.66-.66-.08,.51-.19,1.02-.25,1.53-.09,.86-.12,1.73-.25,2.58-.03,.23-.34,.41-.52,.61-.14-.21-.36-.41-.4-.63-.32-1.9-.76-3.81-.85-5.72-.05-1.09,.38-2.28,.84-3.3,.25-.55,.41-.97,.22-1.53-.8-2.42-1.61-4.84-2.39-7.27-.93-2.87-1.85-5.74-2.86-8.9Zm7.43-59.01c0-2.32,.12-4.53-.03-6.73-.3-4.37-.03-8.71,.61-13.02,.23-1.56,.57-3.17,1.91-4.16-2.36-.8-4.76-1.62-7.16-2.44-3.04-1.04-5.83-.76-8.21,1.64-.43,.44-.91,.84-1.28,1.33-.79,1.04-1.53,2.11-2.27,3.18-.42,.61-1.02,1.19-1.18,1.88-.39,1.62-.24,3.23,.53,4.76,1.43,2.86,2.79,5.76,4.23,8.62,.56,1.12,1,2.21,.64,3.49-.11,.39-.19,.8-.3,1.27,4.14,.76,8.27,.77,12.5,.18Zm-16.41,85.84c.11-.04,.22-.07,.33-.11-.1-.3-.18-.61-.29-.91-.86-2.47-1.19-5.05-.56-7.57,.47-1.9,1.33-3.74,2.27-5.47,4.06-7.47,8.15-14.93,12.37-22.31,1.23-2.16,2.05-4.39,2.51-6.8,.06-.33,.11-.66,.16-1-.19-.01-.25-.03-.3-.01-2.39,.92-4.79,1.81-7.41,1.82-.14,0-.4,.26-.42,.42-.17,1.39-.92,2.48-1.64,3.61-1.05,1.64-2.12,3.28-3.01,5.01-2.04,3.97-2.7,8.39-3.91,12.63-.97,3.41-1.39,7.17-4.8,9.12,.52,.94,1.11,1.8,1.48,2.74,.54,1.37,.9,2.83,1.4,4.22,.56,1.55,1.2,3.07,1.81,4.6Zm30.65-62.73c.12,.04,.23,.08,.35,.11,.27-.69,.62-1.35,.79-2.07,.38-1.6-.2-2.86-1.55-3.72-1.3-.84-2.55-1.77-3.2-3.25-1.93-4.39-3.84-8.8-5.73-13.21-.18-.42-.3-.93-.25-1.38,.13-1.39,.39-2.77,.54-4.16,.44-4.03,.94-8.05,1.21-12.1,.11-1.69-.21-3.44-.48-5.13-.17-1.03-1.54-2.04-2.63-2.02-.99,.02-1.41,.85-1.74,1.67-.19,.46-.4,.94-.46,1.43-.32,2.83-.78,5.67-.86,8.51-.11,3.97,.19,7.95,.09,11.93-.05,1.93,.41,3.58,1.39,5.14,1.61,2.56,3.3,5.07,4.87,7.66,1.13,1.87,2.14,3.81,3.12,5.77,.5,.99,1.05,1.84,2.12,2.27,.32,.13,.6,.37,.9,.55-.48-.03-.86-.22-1.26-.37-.52-.2-.78,.03-.6,.56,.34,.98,1.2,1.47,1.92,2.08,.07-.04,.14-.08,.21-.13-.09-.44-.17-.89-.25-1.31,1.04,.1,.5-1.1,.87-1.65,.08,.02,.16,.05,.24,.07-.23,.96-.47,1.92-.7,2.88,.74,.16,.99-.12,1.04-1.39,.03-.69-.05-1.39-.1-2.32,.62,1.32,.57,2.44,.15,3.57Zm-36.41-33.12c-.14,.83-.22,1.63-.41,2.4-.76,3.26-1.56,6.51-2.34,9.77-.79,3.32-1.5,6.66-2.38,9.95-.63,2.36-1.47,4.61-3.33,6.38-1.34,1.28-1.64,3-1.16,4.79,.44-.61,.84-1.24,1.32-1.79,.66-.75,1.33-1.5,2.08-2.15,.86-.74,1.83-1.11,2.22-2.55,.67-2.5,1.97-4.81,2.95-7.23,2.53-6.24,4.9-12.55,6.13-19.22,.2-1.1,.65-2.17-.05-3.34-1.29-2.13-1.19-4.49-.47-6.75,.88-2.76,1.12-5.48,.25-8.25-.24-.78-.57-1.52-.87-2.28-.07,.03-.13,.05-.2,.08,.11,.3,.23,.6,.34,.9,.65,1.87,1.14,3.76,.96,5.77-.24,2.66-1.45,4.93-3.16,6.85-1.1,1.23-1.32,2.62-1.43,4.07-.08,.96-.84,2.1,.6,2.88-.09,.04-.18,.08-.26,.11-.23-.12-.46-.24-.77-.4Zm20.49,59.03c-1.77,3.09-3.49,6.07-5.17,9.06-.16,.28-.17,.75-.07,1.07,1.53,4.64,3.1,9.27,4.63,13.92,.35,1.05,.56,2.14,.89,3.42,1.41,.44,2.27,1.82,3.18,3.2,.71,1.08,1.65,1.96,3.01,2.16,.27,.04,.56-.1,.84-.15-.12-.24-.2-.53-.37-.71-1.3-1.37-2.34-2.89-2.94-4.72-1.66-5.06-2.11-10.35-2.8-15.58-.5-3.83-.8-7.68-1.2-11.67Zm-13.22-88.65c-1.7,1.17-2.12,2.73-1.55,4.52,.27,.83,.74,1.61,1.24,2.33,1.12,1.61,2.05,3.29,2.05,5.32,0,.82-.12,1.64-.19,2.47,.94-.5,1.81-1.05,1.48-2.41-.06-.25,0-.54,.01-.8,.03-1.66,.71-2.39,2.33-2.3,1.8,.1,3.59,.32,5.44,.49,.09-.95-.84-2.17,.21-3.38-.07,.5-.19,.88-.15,1.24,.02,.24,.21,.59,.42,.68,1.12,.48,2.03,.1,2.52-1.03,.19-.43,.27-.9,.41-1.36,.48-1.57-.02-3.43,1.51-4.8-1.72-.72-2.12-2.13-2.39-3.68-.1-.56-.44-1.07-.68-1.61-.41,2.21-.8,4.3-1.2,6.5-.38-.49-.68-.87-1.18-1.51-.27,.7-.65,1.2-.61,1.67,.08,1.09,.9,1.62,1.81,1.85-1.12,2.74-2.85,4.27-5.87,3.12-.09,.59-.17,1.11-.25,1.62-.09,0-.18-.02-.26-.03-.02-.13-.09-.27-.06-.4,.21-1.12-.32-1.59-1.31-2.08-2.38-1.17-3.93-3.02-3.67-5.94,.01-.14-.02-.28-.03-.49Zm12.13,13.66c.17-2.03-.45-3.18-2.19-3.6-1.49-.36-3.06-.47-4.6-.53-.59-.02-1.49-.03-1.65,.86-.16,.87-.14,1.77-.21,2.9,3.14-1.6,5.91-.79,8.65,.37Zm-11.15-16.89c-2.17-.7-4.61-.02-5.82,1.64-1.17,1.6-1.66,3.41-1.66,5.35,0,2.36,.2,4.72,.12,7.07-.04,1.18-.39,2.4-.82,3.51-.79,2.06-2.63,2.94-4.5,3.74-.95,.41-1.86,.91-2.78,1.37,.03,.07,.07,.14,.1,.21,1.65-.79,3.38-1.46,4.92-2.43,.95-.6,1.79-1.56,2.38-2.54,1.37-2.28,1.17-4.85,1.01-7.39-.13-2.11-.33-4.23,.26-6.31,.75-2.65,2.2-3.94,4.76-4.2,.64-.07,1.3-.01,2.03-.01Zm-11.56,29.49c-.22,2.7,.93,5.04,2.6,4.91-.22-.56-.37-1.14-.65-1.65-.65-1.16-1.36-2.29-1.95-3.26Zm3.7-1.73c-1.82,.84-2.06,2.1-.73,4.06,.25-1.4,.49-2.69,.73-4.06Zm6.97-26.3c-1.8,.22-3.65,2.46-4.1,4.82-.27,1.42,1.03,3.94,2.58,4.79-1.36-1.59-2.69-3.08-2.19-5.22,.48-2.02,1.83-3.39,3.71-4.39Zm-16,63.9c-.6,.7-.62,1.16-.13,2.23,.99-.65,1.05-1.66,.13-2.23Zm6.42-42.54c-.05-.05-.1-.11-.14-.16l-2.4,2.13c.05,.06,.11,.12,.16,.18,.79-.71,1.59-1.43,2.38-2.14Zm-2.18,5.57c-.51,1.21-.51,2.38,0,3.5v-3.5Z"/><path class="cls-23" d="M311.07,545.07c-.82,2.87-1.6,5.58-2.37,8.29-1.19,4.17-2.39,8.33-3.54,12.5-.37,1.34-.87,2.74-.8,4.09,.09,1.69,.82,3.33,2.25,4.4,.87,.64,1.88,1.09,2.84,1.6,1.02,.54,1.07,1.14,.09,1.79-1.23,.82-2.6,1.25-4.08,1.27-1.9,.03-3.76-.16-5.5-1.03-1.28-.64-2.14-1.63-2.72-2.92-.13-.3-.45-.55-.75-.73-.87-.54-1.81-.97-2.64-1.57-1.07-.77-1.26-1.66-.63-2.8,.51-.93,1.03-1.91,1.74-2.68,.89-.96,1.16-2.07,1.38-3.29,.99-5.62,1.97-11.24,3.03-16.85,.84-4.48,2.12-8.83,3.78-13.06,.18-.46,.2-.97,.3-1.46,.26-1.34,.56-2.67,.76-4.02,.07-.47,.02-1.03-.18-1.44-2.83-5.93-5.38-11.97-6.81-18.42-.54-2.43-.83-4.92-1.23-7.38,0-.06,.02-.14,0-.18-1.12-1.43-.1-2.9-.04-4.35,.05-1.34,.26-2.67,.42-4,.07-.54-.13-.87-.59-1.15-2.72-1.69-5.29-3.57-7.59-5.83-1.21-1.19-2.41-2.38-2.91-4.08-.05-.17-.13-.39-.26-.46-.95-.47-.76-1.23-.52-1.99,.35-1.12,.95-2.18,.56-3.44-.06-.2,.19-.64,.42-.78,1.42-.93,2.29-2.28,2.97-3.8,1.39-3.11,2.79-6.22,4.22-9.32,.42-.91,1.01-1.75,1.45-2.66,.54-1.13,1.48-1.78,2.57-2.17,1.99-.71,4-1.37,6.02-1.96,.58-.17,.83-.42,.9-.99,.24-1.81,.81-2.4,2.6-2.83,.14-.03,.29-.09,.39-.18,.47-.43,.52-2.65,.08-3.11-1.72-1.79-2.7-3.85-2.57-6.43,.05-.98-.15-2-.4-2.96-.53-2.04,.32-5.15,3.26-5.07,2.33,.06,4.67,.34,6.99,.61,1.39,.16,2.76,.5,4.02,.73,.38-.35,.69-.87,1.07-.94,.92-.17,1.65,.37,2.17,1.1,1,1.4,.87,3.66-.43,5.05-.96,1.03-1.55,2.12-1.48,3.54,1.59,.43,2.15,2.29,.84,3.64-.98,1.02-1.02,2.2-1.31,3.38-.07,.29-.11,.59-.17,.88-.39,1.92-.77,2.25-2.72,2.29-.14,0-.29,.02-.47,.04,.17,.75,.27,1.48,.53,2.16,.11,.29,.51,.54,.83,.66,1.42,.56,2.86,1.06,4.28,1.61,1.61,.63,2.6,1.84,3.24,3.45,2.34,5.84,4.12,11.87,5.82,17.93,.02,.08,.06,.17,.09,.25,.3-.13,.65-.42,.85-.34,.28,.12,.54,.49,.63,.8,.38,1.28,1.09,2.31,1.96,3.31,.82,.94,.76,1.98,0,3.03-.32,.44-.32,.73,0,1.17,.74,1.04,1.37,2.17,2.16,3.16,.69,.87,1.45,1.77,2.35,2.39,1.97,1.34,2.34,3.46,2.94,5.49,.35,1.19,.16,2.23-.84,3.05-.89,.73-1.61,.64-2.33-.25-.36-.44-.93-.71-1.26-1.17-.62-.83-1.35-1.68-1.67-2.64-.72-2.22-2.07-3.74-4.12-4.71-1.28-.6-2.51-1.29-3.78-1.9-.36-.17-.78-.29-1.18-.32-1.74-.12-3.07-1.58-3.08-3.37,0-.31-.15-.66-.34-.9-.48-.61-.62-1.23-.61-2.04,0-.9-.42-1.81-.66-2.72-.1,.02-.2,.04-.3,.06-.18,1.47-.44,2.93-.52,4.4-.13,2.44-.23,4.89-.17,7.34,.04,1.96,.32,3.92,.51,5.88,.05,.54-.07,.92-.59,1.16-.14,.06-.29,.27-.3,.42-.31,3.29-.51,6.6-.93,9.88-.36,2.8-.96,5.56-1.48,8.34-.23,1.22-.66,2.43-.73,3.65-.06,.95,.26,1.93,.49,2.88,1.79,7.41,3.54,14.84,5.43,22.22,.85,3.33,2,6.59,3,9.88,.14,.44,.23,.9,.36,1.45,.9-.54,1.71-1.06,2.55-1.51,.56-.3,1.14-.74,1.81-.26,.71,.51,.88,1.35,.75,2.09-.36,2.05-1.34,3.73-3.27,4.7-.42,.21-.78,.41-.75,1.04,.04,.98-.6,1.63-1.4,2-.93,.42-1.91,.77-2.9,.98-1.02,.22-1.78-.28-2.14-1.28-2.52-7.08-6.19-13.66-8.86-20.67-.19-.5-.46-.96-.78-1.64Z"/><path d="M295.89,500.22c2.53-.52,5.01-1.1,7.52-1.52,2.42-.4,4.87-.44,7.3,.04,2.59,.52,5.16,1.13,7.75,1.64,2.14,.42,2.13,.45,1.92-1.91-.2-2.32-.59-4.64-.57-6.95,.02-2.58,.35-5.17,.62-7.75,.17-1.56,.19-2.98-.62-4.46-1.08-1.99-2-4.15-2.01-6.48,0-1.56,.28-3.12,.5-4.68,.11-.8,.35-1.58,.54-2.37,.08,.02,.15,.04,.23,.06-.15,.72-.33,1.44-.46,2.16-.42,2.4-.82,4.8-.08,7.23,.94,3.1,2.59,5.85,4.06,8.69,.09,.18,.34,.33,.54,.4,2.6,.94,5.2-.25,6.66-2.63,.22-.35,.2-.93,.12-1.37-.18-.9-.46-1.78-.75-2.66-1.72-5.27-3.43-10.54-5.18-15.8-.51-1.52-1.58-2.57-3.07-3.13-2.2-.82-4.41-1.6-6.62-2.4-6.43-2.34-12.54-1.21-18.49,1.73-.67,.33-.71,.75-.61,1.43,.38,2.44,.91,4.88,.95,7.33,.08,4.93,.36,9.85,.77,14.76,.52,6.25-.07,12.46-1.01,18.64Z"/><path d="M296.37,566.14c3.14-.26,5.43,1.33,7.55,3.29,.23-1.13,.39-2.26,.69-3.34,1.81-6.44,3.53-12.91,5.5-19.3,2.64-8.56,4.84-17.23,6.63-26,1.03-5.04,1.67-10.17,2.42-15.27,.22-1.49,.19-3.01,.28-4.47-1.32-.27-2.51-.47-3.68-.77-4.13-1.05-8.29-1.9-12.57-1.13-2.28,.41-4.54,.9-6.78,1.35,.77,9.64,4.19,18.22,8.2,26.71,.33-1.77,.69-3.43,.94-5.11,.49-3.33,.92-6.67,1.39-10,.16-1.11,.27-2.16-.78-2.95-.25-.19-.4-.51-.59-.78-.83-1.18-1.81-3.62-1.82-4.36,1.02,1.91,2.09,3.93,3.28,6.14,.86-1.77,1.58-3.23,2.29-4.7,.07,.03,.14,.06,.21,.09-.2,.48-.32,1.01-.6,1.44-1.47,2.29-1.65,4.91-1.95,7.51-.33,2.84-.68,5.68-1.17,8.5-.5,2.87-1.17,5.71-1.75,8.57-.17,.84-.18,1.72-.43,2.53-.98,3.24-2.27,6.41-2.98,9.71-1.58,7.41-2.88,14.88-4.3,22.33Z"/><path d="M316.16,530.53c.06,.05,.12,.1,.18,.14-.14,.21-.3,.41-.43,.62-.54,.83-1.29,1.6-1.57,2.52-1,3.2-1.85,6.46-2.71,9.7-.12,.47-.11,1.07,.07,1.52,1.06,2.62,2.16,5.22,3.3,7.8,1.49,3.37,3.04,6.72,4.55,10.08,.27,.6,.61,.89,1.3,.68,1.57-.46,2.92-1.26,4.03-2.47,.61-.67,1-1.38,.54-2.33-.23-.48-.38-1-.54-1.51-2.48-7.86-4.66-15.8-6.39-23.86-.62-2.88-1.3-5.74-2-8.8-.65,2.67-1.26,5.14-1.89,7.74,.58-.68,1.08-1.26,1.57-1.83Z"/><path d="M285.44,476.07c.98-.09,1.8-.33,2.58-.22,2,.28,3.98,.69,5.81,1.64,1.71,.89,2.32-.36,2.27-1.67-.08-2.42-.27-4.84-.26-7.25,.02-3.16-.36-6.26-1.02-9.48-.19,.28-.34,.46-.43,.66-1.79,3.78-3.57,7.56-5.37,11.34-.71,1.5-1.36,3.04-2.84,4.01-.32,.21-.49,.63-.75,.98Z"/><path d="M337.52,498.81c.07-.02,.14-.04,.21-.05,.14,.49,.28,.98,.42,1.47,.16,.54,.25,1.12,.53,1.58,.14,.23,.64,.24,.97,.34,.03-.29,.14-.6,.07-.86-.3-1.05-.65-2.08-.98-3.12,.09-.03,.18-.07,.27-.1l1.23,3.44,.39-.05c.05-.68,.23-1.39,.11-2.05-.19-1.01-.64-1.97-.88-2.98-.26-1.12-.95-1.84-1.81-2.52-.85-.67-1.65-1.44-2.32-2.29-.96-1.23-1.79-2.57-2.55-3.68-1.94,1.06-3.82,2.09-5.68,3.12,.15,.1,.43,.3,.74,.46,1.2,.63,2.44,1.19,3.6,1.87,.86,.5,2.04,1,2.35,1.79,.63,1.59,1.85,2.12,3.16,2.71,.33,.15,.64,.35,.96,.52-.03,.06-.06,.13-.09,.19-.93-.4-1.86-.8-2.93-1.26,.55,1.46,.94,2.81,2.53,3.42-.11-.73-.21-1.34-.31-1.95Z"/><path d="M296.33,491.75c.11-.04,.21-.09,.32-.13,0-1.36,.03-2.72-.02-4.07-.01-.36-.17-.76-.36-1.07-.76-1.2-1.53-2.4-2.37-3.55-.24-.32-.72-.55-1.13-.63-.89-.18-1.8-.23-2.7-.34-1.19-.16-2.38-.37-3.58-.48-.81-.07-.95,.22-.57,.96,.16,.31,.34,.64,.58,.89,1.34,1.38,2.61,2.85,4.06,4.08,1.84,1.55,3.83,2.91,5.76,4.35Z"/><path d="M318.09,445.29c-.58,.72-.95,1.19-1.37,1.72-.24-.93-.43-1.7-.66-2.58-1.08,.59-1.34,1.48-1.42,2.34-.1,1.13,.82,1.6,1.7,2.02-.04,.06-.07,.13-.11,.19-.47-.22-.94-.44-1.18-.56-.71,.46-1.31,1.03-2.02,1.25-1.93,.59-3.77,.24-5.46-.98-.15,.88-.29,1.69-.4,2.33,2.48,.69,4.87,1.35,7.25,2.01,.1-.61,.21-1.32,.33-2.04,.2,.63,.16,1.22,.21,1.8,.02,.23,.16,.54,.35,.66,.84,.53,2.38,.03,2.63-.94,.5-1.97,1.25-3.93,.72-6.03-.1-.38-.34-.71-.58-1.19Z"/><path d="M295.05,479.31c-.11-.3-.17-1-.46-1.12-1.67-.68-3.38-1.33-5.12-1.76-1.02-.25-2.14-.13-3.21-.09-.24,0-.58,.32-.67,.57-.26,.74-.39,1.53-.63,2.29-.49,1.55-.5,1.56,1.03,1.78,2.37,.34,4.75,.69,7.13,1.02,.79,.11,1.39-.2,1.62-1.01,.14-.48,.19-.98,.32-1.68Z"/><path d="M332.18,482.76c-1.88,3.57-4.77,5.05-8.63,4.42-.33,2.46,1.3,3.92,3.53,3.39,2.03-.48,3.84-1.39,5.32-2.8,1.95-1.86,2.02-3.21-.23-5.01Z"/><path d="M315.43,456.34c.17-1.09-.01-1.92-.92-2.49-2.35-1.48-4.9-2.18-7.67-2.13-2.24,.04-2.59,.94-2.84,3.15,3.93-.58,7.69,.29,11.43,1.47Z"/><path d="M322.48,484.45c-.16,1.45,.29,2.33,1.27,2.45,3.03,.38,5.59-.48,7.45-3.05,.91-1.26,.78-2.93-.52-3.87-.47,1.77-1.24,3.3-2.89,4.17-1.71,.9-3.44,1.11-5.3,.3Z"/><path d="M296.55,486.05c.09-.02,.18-.04,.27-.05-.2-2.82-.4-5.64-.61-8.53-.87,.35-.94,.9-.9,1.55,.09,1.3,.07,2.59-1.27,3.33,.85,1.26,1.67,2.48,2.5,3.7Z"/><path d="M308.38,577.28c-1.94,.5-3.68-.04-5.2-1.15-1.18-.86-2.27-1.91-3.23-3.02-1.26-1.45-2.65-2.61-4.51-3.12-.83-.23-1.2-.18-1.65,.26,2.21-.23,3.93,.77,5.35,2.41,1.72,1.98,3.41,3.99,6.04,4.75,1.07,.31,2.17,.52,3.2-.14Z"/><path d="M319.33,447.64c.89-.67,1.16-1.56,1.05-2.51-.04-.34-.47-.64-.72-.96-.11,.05-.22,.1-.32,.15v3.32Z"/><path d="M326.74,565.45c-.58,.96-1.43,1.56-2.5,1.83-1,.25-2.02,.61-3.2-.16,.67,1.03,1.51,.88,2.21,.71,1.43-.34,2.93-.68,3.49-2.37Z"/><path d="M319.23,441.09c-1.79,.34-3.52,.68-5.24,1.01,1.8,.04,3.56-.13,5.24-1.01Z"/><path d="M317.46,444.86c1.56-.46,1.14-1.69,1.36-2.88-.49,1.03-.87,1.84-1.36,2.88Z"/><path d="M327.29,564.05c1.4-.85,2.54-1.96,3.27-3.46-1.1,1.16-2.19,2.31-3.27,3.46Z"/><path d="M424.43,480.86c.01-.61-.12-1.27,.06-1.83,.99-3.1,2.15-6.16,3.08-9.28,1.04-3.5,1.9-7.05,2.83-10.58,.02-.09,.04-.17,.06-.26,.36-2.69,2.21-3.59,4.56-4,1.32-.23,2.62-.64,3.91-1.01,.2-.06,.41-.27,.51-.47,.38-.72,.74-1.46,1.07-2.21,.11-.25,.12-.56,.09-.83-.01-.08-.33-.21-.49-.18-2.06,.28-2.65,.1-3.09-2.92-.23-1.6-.02-3.26-.03-4.9,0-.4-.02-.83-.17-1.19-.92-2.34-.29-4,1.72-5.5,1.49-1.12,3.02-1.86,4.86-1.73,2.7,.19,5.31,.73,6.95,3.2,.54,.81,.96,1.82,1.07,2.77,.1,.85,.46,1.01,1.11,1.15,2.03,.45,3.22,1.7,3.52,3.64,.34,2.21-1.61,4.51-3.9,4.64-1.24,.07-2.41-.03-3.28-.9-.95,.4-.81,1.13-.74,1.81,.02,.15,.21,.37,.36,.4,1.34,.31,1.7,1.4,1.89,2.54,.12,.69,.44,.93,1.04,1.11,1.38,.4,2.78,.78,4.1,1.34,.63,.26,1.36,.79,1.6,1.39,.99,2.41,1.91,4.86,2.66,7.35,1.29,4.25,2.46,8.54,3.65,12.82,.5,1.79,1.29,3.41,2.21,5.03,.79,1.39,1.19,3.01,1.69,4.56,.12,.38-.2,.9-.1,1.29,.82,3.24,1.51,6.55,2.63,9.68,.62,1.73,2,3.19,3.05,4.76,.47,.71,1.05,1.38,1.42,2.14,.23,.47,.29,1.12,.19,1.64-.25,1.38-.9,2.61-1.92,3.54-.39,.36-1.2,.67-1.61,.49-.47-.21-1.08-1.04-.99-1.47,.28-1.45-.45-2.43-1.12-3.5-.58-.93-.85-1.94-.66-3.07,.06-.34-.06-.77-.23-1.08-1.85-3.31-3.74-6.6-5.59-9.91-.31-.55-.67-.94-1.18-1.34-.71-.56-1.32-1.39-1.68-2.23-.43-.99-.71-2.11-.75-3.19-.05-1.39-.42-2.6-1.05-3.82-.8-1.56-1.46-3.18-2.19-4.78-.21-.45-.45-.89-.7-1.39-1.35,3.56-.91,6.79,1.73,13.03-.09,.02-.17,.03-.26,.05,.03,.37,0,.76,.11,1.1,.82,2.43,1.47,4.9,1.61,7.47,.4,7.11-.94,13.98-2.89,20.76-.8,2.77-1.67,5.51-2.45,8.28-.26,.91-.4,1.86-.47,2.81-.22,3.28-.2,6.58-.62,9.83-.41,3.17-1.15,6.31-1.94,9.41-.93,3.68-2.2,7.28-3.07,10.97-.35,1.48-.12,3.13,0,4.68,.19,2.61,1.22,5,2.02,7.45,.32,.98,.21,1.31-.81,1.51-.86,.17-1.75,.19-2.63,.19-1.11,0-2.24-.03-3.34-.2-1.11-.17-1.45-.62-1.5-1.75-.09-1.88-.17-3.76-.16-5.64,0-.77-.32-.89-.94-1.06-.46-.13-1.06-.52-1.21-.94-.65-1.82-1.17-3.69-.46-5.64,.04-.1,.05-.24,0-.33-1.21-2.25-.91-4.79-1.28-7.19-.47-3.06-.84-6.15-1.02-9.23-.19-3.18-.28-6.4-.08-9.58,.22-3.43,.95-6.83,1.21-10.27,.1-1.42-.38-2.91-.73-4.34-1.11-4.55-2.35-9.07-3.4-13.64-.36-1.55-.33-3.19-.47-4.8-.04,0-.11-.04-.15-.02-1.68,1.1-2.25,.99-3.18-.81-.52-.99-1.06-2.03-1.26-3.11-.16-.87,.2-1.84,.3-2.76,.05-.48,.17-1,.03-1.43-.5-1.59-1.09-3.14-1.64-4.71-.03-.08-.03-.2-.09-.25-1.18-.92-1.17-2.3-1.39-3.59,.78,.19,.61,.84,.64,1.38,.06,1.14,.35,1.51,1.46,1.6,.79,.06,1.58,.04,2.37-.02,1.05-.08,1.81-.54,2.1-1.68,.23-.91,.15-1.12-.75-1-1.6,.21-3.16,.13-4.72-.33-.33-.1-.73,.03-1.1,.06Zm19.55,21.05c.09,0,.17-.01,.26-.02,0,.29,0,.59,0,.88-.13,3.97-.26,7.95-.41,11.92-.1,2.78-.21,5.56-.34,8.33-.22,4.78-.44,9.56-.68,14.33-.16,3.16-.35,6.33-.55,9.49-.2,3.13-.41,6.26-.63,9.38-.06,.85,.47,.66,.92,.57,1.25-.26,2.33,.01,3.22,.98,.09,.1,.21,.17,.4,.31,1.06-3.77,2.09-7.47,3.12-11.16,1.49-5.34,2.24-10.78,2.4-16.33,.06-1.92,.17-3.9,.66-5.75,1.64-6.18,3.8-12.22,4.68-18.6,.56-4.06,1.01-8.13,.27-12.21-.37-2.03-.97-4.02-1.41-5.81-4.65,.26-9.05,.64-13.47,.71-2.49,.04-4.99-.34-7.47-.66-1.15-.15-1.21-.25-1.53,.89-1.33,4.81-1.5,9.68-.4,14.53,.97,4.29,2.16,8.53,3.29,12.78,.47,1.77,.92,3.52,.46,5.37-.16,.66-.25,1.35-.38,2.02-1.15,6.08-1.02,12.19-.45,18.31,.4,4.3,.93,8.6,1.38,12.9,.06,.54,.28,.84,.8,.88,.99,.07,1.99,.12,3.17,.18,.89-18.08,1.79-36.15,2.68-54.21Zm-10.96-14.55c2.68,.92,5.32,1.22,7.99,1.12,4.74-.18,9.48-.46,14.22-.71,.62-.03,.86-.31,.62-.94-.16-.41-.3-.84-.47-1.25-1.36-3.15-2.33-6.34-1.25-9.83,.38-1.22,.5-2.48-.14-3.7-.18-.34-.21-.82-.17-1.22,.21-2.34,.33-4.7,.73-7.01,.35-2.03,.95-4.03,1.6-5.99,.39-1.17,.45-1.36-.75-1.8-1.15-.43-2.34-.78-3.5-1.2-3.37-1.21-6.89-1.54-10.36-1.08-2.86,.38-5.64,1.37-8.43,2.19-1.51,.44-1.6,.72-1.26,2.26,1.2,5.47,2.27,10.97,3.71,16.38,.65,2.45,.57,4.58-.43,6.85-.83,1.88-1.39,3.89-2.1,5.93Zm26.34-.67c.4,0,.56,.04,.69,0,1.81-.7,3.57-1.47,5.09-2.74,.61-.52,.56-.96,.2-1.61-.71-1.29-1.51-2.57-1.94-3.96-1.45-4.73-2.79-9.49-4.1-14.26-.64-2.34-1.32-4.65-2.52-6.96-.33,.73-.64,1.29-.84,1.89-1.29,3.81-1.55,7.79-1.76,11.77-.04,.65,.11,1.39,.39,1.98,1.49,3.19,3.06,6.34,4.59,9.51,.05,.09,.05,.21,.06,.32,.05,1.32,.1,2.64,.15,4.06Zm-27.93-29.07c-2.27,7.5-3.78,15.21-6.96,22.44,2.17,.98,4.28,1.06,6.42,.67,.11-.02,.23-.18,.28-.31,1.03-2.52,2.09-5.04,3.06-7.58,.19-.51,.18-1.16,.07-1.71-.5-2.59-1.06-5.16-1.61-7.74-.41-1.93-.84-3.85-1.26-5.77Zm38.93,50.83c-.21,.87,.06,1.42,.63,1.58,.54,.15,1.16,.04,1.51-.6,.38-.7,.82-1.37,1.21-2.06,.67-1.19,.55-2.32-.27-3.39-.25-.33-.44-.71-.72-1.02-2.31-2.54-3.7-5.52-4.41-8.89-.43-2.04-1.05-4.04-1.58-6.02-1.51,.72-2.94,1.4-4.58,2.18,1.93,3.4,3.86,6.83,5.83,10.24,.31,.53,1,.92,1.11,1.46,.28,1.29,1.12,2.13,1.91,3.04,.76,.87,.9,1.82,.44,2.56-.33,.54-.61,1.11-.85,1.55,0,0-.09-.24-.24-.64Zm-35.72-35.27c-.94,2.16-1.95,4.08-2.6,6.12-.62,1.91-1,3.93-1.22,5.93-.17,1.6-.34,3.27,.47,4.82,.35,.67,.61,1.4,.93,2.15,.32-1.32,.64-2.63,.95-3.94,.03-.12-.03-.31-.11-.38-.52-.45-.35-.95-.16-1.47,.92-2.59,1.84-5.19,2.76-7.78,.1-.28,.29-.6,.23-.84-.36-1.48-.78-2.95-1.23-4.61Zm6.54-22.37c2.08-.85,4.27-.93,6.51-.4-.03-.46-.05-.8-.07-1.2-1.73-.06-3.11-.75-4.1-2.23-.29-.44-.63-.75-1.3-.48-.8,.32-1.88-.28-2.15-.95,.47,.23,.97,.58,1.52,.69,.36,.07,.94-.1,1.14-.37,.2-.27,.19-.88,.03-1.22-.27-.54-.74-.99-1.19-1.54,.09,.33,.15,.57,.22,.82,.27,.91-.03,1.3-.86,.95-.7-.29-1.49-.74-1.85-1.36-.67-1.15-1.04-2.47-1.37-3.3-.08,.67-.22,1.82-.37,2.97-.25,1.97-.23,3.92,.49,5.82,.34,.9,.98,1.07,2.29,.78,1.03-.23,.73-.85,.6-1.49-.04-.2,0-.42,0-.62,.1,0,.2,0,.3,0,.05,1.04,.11,2.07,.16,3.14Zm-15,33.53c.6,1.69,1.24,3.44,1.85,5.21,.11,.31,.21,.75,.08,.99-.93,1.63-.77,3.2,.07,4.73,.52-.54,1.02-1.08,1.64-1.73,.14-.94-.13-1.97-1.04-2.79,.84,.34,1.26,.98,1.28,1.83,.02,1.15,.87,1.76,1.52,2.56,.25-1.42,.54-2.82-.26-4.13-.68-1.1-1.03-2.23-.95-3.54,.08-1.24,.02-2.49,.02-3.54-1.36,.14-2.74,.27-4.19,.42Zm13.65-30.75c3.43-.42,6.81-.5,10.16,.34,.05-1.31-.46-2.46-1.26-2.77-1.97-.75-3.98-.87-6.06-.45-1.59,.32-2.59,1.15-2.84,2.88Zm26.19,30.28c-1.65,.94-3.01,1.73-4.38,2.5-.6,.34-1.21,.68-1.82,1.01,.36,.64,.68,1.31,1.11,1.9,.18,.24,.66,.51,.88,.43,1.54-.58,3.07-1.23,4.56-1.93,.28-.13,.64-.64,.58-.88-.25-1.07-.64-2.1-.94-3.04Zm-34.67,11.99c-.24-.35-.51-.67-.71-1.04-.44-.85-1.09-.91-1.65-.12-.61,.85-.16,2.62,.79,3.09,.59,.29,1.17,0,1.15-.67-.01-.47-.21-.93-.33-1.43,.28,.07,.52,.13,.75,.18Zm37.31,6.5c-.05,.75-.12,1.73,.51,2.63,.44,.62,.8,1.31,1.21,1.95,.11,.17,.37,.42,.43,.39,.2-.12,.52-.37,.49-.52-.1-.52-.23-1.08-.52-1.51-.68-1.04-1.45-2.02-2.13-2.94Zm-26.06,55.12c1.03,.89,2.02,1.75,3.06,2.64,.14-2.24-1.38-3.46-3.06-2.64Zm5.57-113.08c-1.61,.53-2.79-.17-3.86-1.28-1.2-1.24-2.48-2.42-3-4.19-.07,.15-.11,.28-.07,.38,.95,2.46,2.66,4.23,4.95,5.43,.67,.35,1.36,.13,1.98-.34Zm.45-.71c.03-1.3-3.22-6.23-4.53-6.61,2.37,1.74,2.95,4.57,4.53,6.61Zm-10.48,113.09c.84,.21,1.74,.47,2.65,.66,.29,.06,.6-.03,.91-.05-3.06-1.16-3.13-1.16-3.56-.61Zm13.89-114.05c1.2,1.22,1.43,2.73,1.27,4.49,.7-1.58,.08-3.68-1.27-4.49Z"/><path class="cls-12" d="M393.5,459.09h-22.63c-.19-1.31-.38-2.48-.52-3.65-.32-2.48-.52-4.98-.94-7.44-.67-3.95-1.4-7.89-2.26-11.8-.73-3.32-1.69-6.59-2.54-9.88-.44-1.73-.35-2.14,1.3-2.76,4.06-1.54,8.13-3.07,12.27-4.35,2.82-.88,5.73-.38,8.53,.44,3.32,.97,6.63,2,9.94,3.01,.61,.19,1.21,.44,1.85,.68-1.87,1.56-2.9,3.61-3.64,5.76-.67,1.95-1.16,3.99-1.42,6.03-.13,1.05,.23,2.28,.69,3.27,1.05,2.27,1.06,4.58,.81,6.98-.39,3.67-.69,7.36-1.05,11.04-.08,.86-.24,1.7-.38,2.69Z"/><path class="cls-1" d="M398.67,450.65c.63,.15,1.13,.23,1.59,.4,2.89,1.04,5.16,.56,7.07-1.55,.09-.09,.15-.21,.12-.41-.42,.35-.83,.71-1.26,1.04-2.27,1.73-4.53,1.31-6.78,.19-.12-.06-.26-.16-.31-.28-1.62-4.07-3.22-8.14-4.85-12.2-.74-1.84-.54-3.69-.09-5.52,.67-2.7,1.7-5.25,3.32-7.52,.09-.12,.16-.25,.25-.37,.79-.97,1.24-.99,1.63,.17,1.02,2.99,1.88,6.04,2.88,9.04,1.39,4.18,2.85,8.35,4.28,12.52,1.3,1.3,1.55,3.08,2.1,4.72,.37,1.11,.13,2.03-.84,2.7-1.79,1.23-3.79,1.55-5.89,1.33-1.8-.19-2.63-1.11-3.02-3.09-.06-.29-.1-.58-.21-1.16Z"/><path class="cls-1" d="M364.01,425.28c1.27,4.96,2.48,9.77,3.75,14.56,.39,1.46,.41,2.79-.23,4.21-.84,1.86-1.46,3.81-2.23,5.7-.11,.27-.49,.56-.79,.62-2.47,.5-4.94,.97-7.42,1.41-.6,.1-.88-.16-.63-.85,2.55-7.14,4.41-14.48,6.29-21.82,.32-1.25,.81-2.46,1.27-3.82Z"/><path class="cls-1" d="M402.39,455.34c2.13-.03,4.09-.3,5.72-1.68,.47,1.87,.99,3.65,1.36,5.47,.47,2.31,1.62,4.17,3.23,5.8,1.24,1.26,1.22,1.32,.51,2.94-.31,.7-.52,1.45-.82,2.16-.29,.7-.88,1.02-1.61,1.06-.51,.02-1.08,.11-1.31-.65,.5-.2,.98-.4,1.5-.61-.18-.09-.4-.2-.6-.3,.14-.41,.27-.81,.41-1.21-.04-.01-.08-.03-.12-.04-.38,.53-.76,1.06-1.14,1.59-.11-.02-.21-.04-.32-.07-.26-1.29-.52-2.58-.78-3.87l.3-.18c.96,.73,1.92,1.46,2.88,2.19,.09-.09,.17-.18,.26-.28-4.56-2.97-7.14-7.46-9.47-12.32Z"/><path class="cls-1" d="M360.23,456.96c2.09-.16,4.05-.46,5.68-1.77,1.24,1.86,2.43,3.75,3.76,5.54,.44,.6,.62,1.1,.5,1.82-.18,1.14-.27,2.3-.43,3.7-.71-.4-1.41-.65-1.92-1.11-2.69-2.41-5.2-5.01-7.44-7.86-.05-.06-.07-.15-.15-.31Z"/><path class="cls-1" d="M370.13,460.95c-.98-1.53-1.97-3.06-2.95-4.59-.1-.15-.15-.33-.27-.46-.56-.66-.71-1.24-.2-2.12,.68-1.18-.25-2.22-.82-3.17-.28-.47-.28-.8-.13-1.2,.79-2.05,1.59-4.09,2.4-6.13,.02-.04,.09-.06,.23-.14,.77,5.92,1.88,11.76,2.11,17.7-.12,.04-.24,.07-.37,.11Z"/><path class="cls-1" d="M356.82,452.18c1.04-.15,2.08-.26,3.11-.46,1.55-.31,3.09-.67,4.62-1.06,.61-.15,.97-.09,1.34,.53,1.34,2.26,.42,3.46-1.37,4.41-1.73,.91-3.65,1.09-5.58,.94-.82-.06-1.1-.75-1.31-1.4-.29-.93-.52-1.89-.8-2.96Z"/><path class="cls-1" d="M386.75,419.29c-3.51-1.07-6.97-1.04-10.54-.02,.05-.28,.07-.44,.1-.59,.4-2.76,1.26-3.49,4.05-3.61,1.86-.08,3.61,.3,5.27,1.13,.72,.36,1.21,1.61,1.11,3.09Z"/><path class="cls-1" d="M378.42,414.92c.1-.74,.21-1.53,.29-2.11,1.25-.08,2.47-.09,3.66-.26,1.09-.16,1.85-.86,2.3-1.88,.16-.35,.19-1,.74-.74,.48,.23,1.02,.69,1.18,1.17,.27,.83,.38,1.75,.35,2.63-.02,.52-.44,1.03-.68,1.55-.09-.02-.17-.04-.26-.06-.2-.43-.4-.87-.6-1.3-.05,0-.11,.01-.16,.02,.06,.57,.13,1.13,.19,1.67-1.17-.3-2.28-.71-3.41-.82-1.15-.11-2.33,.08-3.6,.15Z"/><path class="cls-1" d="M392.26,496.41c.37-11.14,.74-22.29,1.11-33.43,.09,0,.18,0,.27,0-.37,11.15-.75,22.31-1.12,33.46-.08-.01-.17-.02-.25-.04Z"/><path class="cls-1" d="M381.35,507.96c.66-9.35,.29-18.7,.03-28.05,.52,9.35,.98,18.7-.03,28.05Z"/><path class="cls-1" d="M376.3,526.72c.51-2.01,.92-4.05,1.55-6.02,1.34-4.18,2.8-8.31,4.18-12.47,.42-1.26,.75-2.56,1.11-3.84,.14-.49,.33-.77,.92-.88,1.9-.37,3.78-.85,5.66-1.28,.08,.07,.16,.13,.24,.2-.14,.02-.28,.04-.42,.07-1.83,.43-3.66,.84-5.48,1.3-.23,.06-.53,.27-.59,.48-1.91,5.83-3.81,11.66-5.66,17.51-.52,1.64-.87,3.33-1.3,5-.06-.02-.13-.03-.19-.05Z"/><path class="cls-1" d="M386.87,406c-.09,1.46-.17,2.79-.25,4.15-.54-.25-1.05-.48-1.77-.81-.5-1.19,.14-2.55,2.02-3.33Z"/><path class="cls-1" d="M382.86,548.58c-1.84-1.26-2.76-3.16-3.5-5.2-.33-.92-.6-1.89-1.12-2.69-.98-1.51-2.45-2.28-4.26-2.28-.27,0-.53,0-.8-.01-.05,0-.09-.06-.13-.09,1.94-.69,4.82,.69,5.78,2.8,.32,.7,.57,1.43,.83,2.16,1.02,2.77,1.39,3.36,3.2,5.31Z"/><path class="cls-1" d="M387.57,410.15c-.17-1.3-.14-2.56,.43-3.74,.1-.2,.35-.36,.56-.46,.05-.02,.3,.25,.35,.43,.19,.61-.8,3.36-1.35,3.77Z"/><path class="cls-1" d="M369.45,470.18c-.49-1.39-.97-2.79-1.48-4.23,.19,0,.27-.01,.35,0,1.14,.22,1.5,.92,1.32,2.06-.11,.69-.02,1.42-.02,2.13-.06,.01-.12,.02-.18,.04Z"/><path class="cls-1" d="M380.67,460.94h11.46c0,.05,0,.1,0,.15h-11.48l.02-.15Z"/><path class="cls-1" d="M380.06,461.12c-2.89,.1-5.77,.19-8.66,.29,0-.09,0-.18-.01-.28,2.89-.11,5.77-.22,8.66-.33,0,.11,0,.21,.01,.32Z"/><path class="cls-1" d="M379.51,477.5c-2.87-.59-5.73-1.22-7.92-3.42,2.32,1.9,5.17,2.54,7.92,3.42Z"/><path class="cls-1" d="M381.87,478.77c.99-2.42,1.98-4.83,2.97-7.25l.23,.1c-1,2.43-1.99,4.86-2.99,7.29-.07-.05-.15-.09-.22-.14Z"/><path class="cls-1" d="M387.4,535.84c-.83,2.38-2.13,4.44-4.16,5.98,1.69-1.78,3.15-3.72,4.16-5.98Z"/><path class="cls-1" d="M389.42,498.92c-2.14,.14-4.29,.27-6.43,.41,0-.1-.01-.21-.02-.31,2.14-.12,4.29-.25,6.43-.37,0,.09,.01,.18,.02,.27Z"/><path class="cls-1" d="M379.83,471.17c.42,2,.85,3.99,1.27,5.99l-.25,.06c-.43-1.99-.86-3.99-1.28-5.98,.09-.02,.17-.04,.26-.06Z"/><path class="cls-1" d="M388.34,501.24h-5.42s0,.05,0,.07c1.8-.11,3.61-.21,5.41-.32,0,.08,0,.16,.01,.25Z"/><path class="cls-1" d="M240.05,496.2c-4.24,.59-8.36,.58-12.5-.18,.11-.48,.19-.88,.3-1.27,.36-1.28-.08-2.37-.64-3.49-1.44-2.86-2.8-5.76-4.23-8.62-.77-1.53-.92-3.15-.53-4.76,.16-.68,.76-1.27,1.18-1.88,.74-1.07,1.49-2.14,2.27-3.18,.37-.49,.84-.89,1.28-1.33,2.38-2.39,5.16-2.68,8.21-1.64,2.4,.82,4.8,1.64,7.16,2.44-1.34,.99-1.68,2.6-1.91,4.16-.64,4.31-.9,8.65-.61,13.02,.15,2.2,.03,4.41,.03,6.73Z"/><path class="cls-1" d="M223.64,582.05c-.61-1.53-1.25-3.05-1.81-4.6-.5-1.39-.86-2.84-1.4-4.22-.37-.94-.96-1.8-1.48-2.74,3.41-1.95,3.83-5.71,4.8-9.12,1.21-4.24,1.86-8.67,3.91-12.63,.89-1.73,1.96-3.37,3.01-5.01,.72-1.13,1.47-2.23,1.64-3.61,.02-.16,.27-.42,.42-.42,2.61,0,5.01-.89,7.41-1.82,.05-.02,.12,0,.3,.01-.06,.34-.1,.68-.16,1-.46,2.41-1.28,4.64-2.51,6.8-4.22,7.38-8.31,14.84-12.37,22.31-.94,1.73-1.8,3.57-2.27,5.47-.62,2.52-.3,5.1,.56,7.57,.1,.3,.19,.61,.29,.91-.11,.04-.22,.07-.33,.11Z"/><path class="cls-1" d="M254.29,519.32c.43-1.14,.48-2.25-.15-3.57,.04,.93,.13,1.63,.1,2.32-.06,1.27-.31,1.55-1.04,1.39,.23-.96,.47-1.92,.7-2.88-.08-.02-.16-.05-.24-.07-.37,.55,.17,1.74-.87,1.65,.08,.42,.17,.86,.25,1.31-.07,.04-.14,.08-.21,.13-.72-.61-1.58-1.1-1.92-2.08-.18-.52,.08-.75,.6-.56,.4,.15,.79,.35,1.26,.37-.3-.19-.58-.42-.9-.55-1.07-.42-1.62-1.28-2.12-2.27-.98-1.95-1.99-3.9-3.12-5.77-1.56-2.59-3.26-5.1-4.87-7.66-.98-1.56-1.44-3.21-1.39-5.14,.1-3.97-.19-7.95-.09-11.93,.08-2.84,.53-5.68,.86-8.51,.06-.49,.27-.97,.46-1.43,.33-.82,.75-1.65,1.74-1.67,1.09-.02,2.46,.99,2.63,2.02,.27,1.7,.6,3.44,.48,5.13-.27,4.04-.78,8.07-1.21,12.1-.15,1.39-.41,2.77-.54,4.16-.04,.45,.07,.96,.25,1.38,1.89,4.41,3.8,8.81,5.73,13.21,.65,1.48,1.9,2.41,3.2,3.25,1.35,.87,1.93,2.13,1.55,3.72-.17,.71-.52,1.38-.79,2.07-.12-.04-.23-.08-.35-.11Z"/><path class="cls-1" d="M217.88,486.2c.31,.16,.54,.28,.77,.4,.09-.04,.18-.08,.26-.11-1.44-.79-.67-1.93-.6-2.88,.11-1.45,.34-2.84,1.43-4.07,1.71-1.92,2.92-4.19,3.16-6.85,.18-2-.31-3.9-.96-5.77-.1-.3-.22-.6-.34-.9,.07-.03,.13-.05,.2-.08,.29,.76,.62,1.51,.87,2.28,.86,2.78,.62,5.49-.25,8.25-.72,2.26-.82,4.62,.47,6.75,.71,1.17,.26,2.24,.05,3.34-1.22,6.67-3.59,12.97-6.13,19.22-.98,2.42-2.28,4.73-2.95,7.23-.39,1.44-1.36,1.81-2.22,2.55-.75,.65-1.42,1.4-2.08,2.15-.48,.55-.87,1.18-1.32,1.79-.48-1.79-.18-3.51,1.16-4.79,1.86-1.77,2.7-4.03,3.33-6.38,.88-3.29,1.59-6.63,2.38-9.95,.78-3.26,1.57-6.51,2.34-9.77,.18-.77,.27-1.57,.41-2.4Z"/><path class="cls-1" d="M238.37,545.23c.4,3.99,.7,7.85,1.2,11.67,.69,5.24,1.14,10.52,2.8,15.58,.6,1.83,1.64,3.34,2.94,4.72,.18,.19,.25,.47,.37,.71-.28,.05-.57,.19-.84,.15-1.36-.2-2.3-1.09-3.01-2.16-.91-1.38-1.77-2.76-3.18-3.2-.33-1.28-.54-2.38-.89-3.42-1.53-4.64-3.1-9.27-4.63-13.92-.1-.32-.09-.78,.07-1.07,1.68-3,3.4-5.97,5.17-9.06Z"/><path class="cls-1" d="M225.15,456.58c.02,.21,.05,.35,.03,.49-.25,2.92,1.3,4.77,3.67,5.94,.99,.49,1.52,.95,1.31,2.08-.02,.12,.04,.26,.06,.4,.09,0,.18,.02,.26,.03,.08-.51,.16-1.03,.25-1.62,3.02,1.15,4.75-.38,5.87-3.12-.91-.23-1.73-.77-1.81-1.85-.03-.47,.34-.97,.61-1.67,.5,.64,.8,1.02,1.18,1.51,.41-2.2,.8-4.29,1.2-6.5,.23,.54,.58,1.05,.68,1.61,.27,1.54,.67,2.96,2.39,3.68-1.53,1.37-1.03,3.22-1.51,4.8-.14,.45-.23,.93-.41,1.36-.49,1.13-1.4,1.51-2.52,1.03-.2-.09-.39-.43-.42-.68-.04-.36,.08-.74,.15-1.24-1.05,1.21-.12,2.43-.21,3.38-1.85-.17-3.64-.39-5.44-.49-1.61-.09-2.3,.64-2.33,2.3,0,.27-.07,.55-.01,.8,.33,1.36-.54,1.91-1.48,2.41,.07-.83,.19-1.65,.19-2.47,0-2.03-.92-3.71-2.05-5.32-.5-.72-.98-1.5-1.24-2.33-.58-1.79-.16-3.35,1.55-4.52Z"/><path class="cls-1" d="M237.28,470.24c-2.75-1.16-5.51-1.98-8.65-.37,.07-1.13,.06-2.03,.21-2.9,.16-.89,1.06-.89,1.65-.86,1.54,.06,3.11,.17,4.6,.53,1.74,.42,2.36,1.58,2.19,3.6Z"/><path class="cls-1" d="M226.13,453.34c-.73,0-1.39-.06-2.03,.01-2.56,.27-4.01,1.55-4.76,4.2-.59,2.08-.39,4.2-.26,6.31,.15,2.54,.36,5.11-1.01,7.39-.59,.98-1.43,1.94-2.38,2.54-1.54,.97-3.27,1.64-4.92,2.43-.03-.07-.07-.14-.1-.21,.93-.46,1.83-.96,2.78-1.37,1.87-.81,3.71-1.69,4.5-3.74,.43-1.11,.78-2.33,.82-3.51,.08-2.35-.13-4.71-.12-7.07,0-1.94,.49-3.75,1.66-5.35,1.21-1.66,3.66-2.35,5.82-1.64Z"/><path class="cls-1" d="M214.58,482.83c.59,.97,1.3,2.1,1.95,3.26,.28,.51,.44,1.09,.65,1.65-1.67,.13-2.82-2.21-2.6-4.91Z"/><path class="cls-1" d="M218.28,481.1c-.25,1.37-.48,2.65-.73,4.06-1.33-1.96-1.09-3.22,.73-4.06Z"/><path class="cls-1" d="M225.25,454.8c-1.87,1-3.23,2.36-3.71,4.39-.5,2.14,.82,3.63,2.19,5.22-1.55-.85-2.85-3.37-2.58-4.79,.45-2.36,2.3-4.6,4.1-4.82Z"/><path class="cls-1" d="M209.25,518.69c.92,.57,.86,1.58-.13,2.23-.49-1.07-.47-1.52,.13-2.23Z"/><path class="cls-1" d="M215.67,476.16c-.79,.71-1.59,1.43-2.38,2.14-.05-.06-.11-.12-.16-.18l2.4-2.13c.05,.05,.1,.11,.14,.16Z"/><path class="cls-1" d="M213.49,481.73v3.5c-.51-1.13-.51-2.3,0-3.5Z"/><path class="cls-2" d="M295.89,500.22c.94-6.18,1.53-12.38,1.01-18.64-.41-4.91-.69-9.83-.77-14.76-.04-2.45-.58-4.89-.95-7.33-.1-.68-.06-1.1,.61-1.43,5.95-2.94,12.06-4.07,18.49-1.73,2.21,.8,4.42,1.58,6.62,2.4,1.49,.56,2.56,1.61,3.07,3.13,1.75,5.26,3.46,10.53,5.18,15.8,.28,.87,.56,1.76,.75,2.66,.09,.44,.1,1.02-.12,1.37-1.47,2.39-4.06,3.57-6.66,2.63-.2-.07-.44-.22-.54-.4-1.47-2.84-3.12-5.59-4.06-8.69-.74-2.43-.34-4.83,.08-7.23,.13-.73,.31-1.44,.46-2.16-.08-.02-.15-.04-.23-.06-.18,.79-.43,1.57-.54,2.37-.22,1.55-.51,3.12-.5,4.68,.01,2.34,.93,4.49,2.01,6.48,.81,1.48,.79,2.9,.62,4.46-.28,2.58-.61,5.16-.62,7.75-.01,2.32,.37,4.63,.57,6.95,.21,2.36,.22,2.33-1.92,1.91-2.59-.51-5.16-1.12-7.75-1.64-2.42-.49-4.88-.44-7.3-.04-2.5,.42-4.98,1-7.52,1.52Z"/><path class="cls-6" d="M296.37,566.14c1.41-7.45,2.71-14.92,4.3-22.33,.7-3.3,2-6.47,2.98-9.71,.24-.81,.26-1.69,.43-2.53,.58-2.86,1.26-5.7,1.75-8.57,.49-2.82,.84-5.66,1.17-8.5,.3-2.6,.48-5.22,1.95-7.51,.28-.43,.4-.96,.6-1.44-.07-.03-.14-.06-.21-.09-.72,1.47-1.43,2.94-2.29,4.7-1.18-2.22-2.26-4.23-3.28-6.14,0,.74,.99,3.18,1.82,4.36,.19,.27,.34,.59,.59,.78,1.05,.78,.94,1.84,.78,2.95-.47,3.33-.9,6.67-1.39,10-.25,1.68-.61,3.34-.94,5.11-4.01-8.49-7.43-17.06-8.2-26.71,2.24-.45,4.51-.94,6.78-1.35,4.28-.77,8.44,.08,12.57,1.13,1.17,.3,2.36,.49,3.68,.77-.08,1.45-.06,2.98-.28,4.47-.75,5.1-1.39,10.22-2.42,15.27-1.79,8.77-3.99,17.44-6.63,26-1.97,6.39-3.7,12.86-5.5,19.3-.3,1.08-.46,2.2-.69,3.34-2.12-1.96-4.41-3.55-7.55-3.29Zm10.23-55.5c.02-.12,.03-.23,.05-.35-2.62-.33-5.23-.66-7.85-.99-.01,.11-.03,.21-.04,.32,2.61,.34,5.23,.67,7.84,1.01Zm9.82-1.99c-.03-.12-.06-.23-.09-.35-2.15,.61-4.31,1.21-6.46,1.82,.03,.1,.06,.21,.08,.31,2.16-.59,4.31-1.19,6.47-1.78Zm-5.88,24.09l-.06-.34c-1.85,.31-3.7,.62-5.55,.93,.02,.1,.04,.21,.06,.31,1.85-.3,3.7-.6,5.55-.9Z"/><path class="cls-6" d="M316.16,530.53c-.5,.58-.99,1.16-1.57,1.83,.63-2.6,1.24-5.07,1.89-7.74,.7,3.06,1.38,5.92,2,8.8,1.74,8.06,3.91,16,6.39,23.86,.16,.51,.31,1.03,.54,1.51,.46,.95,.07,1.66-.54,2.33-1.11,1.22-2.46,2.01-4.03,2.47-.69,.21-1.04-.08-1.3-.68-1.51-3.36-3.06-6.71-4.55-10.08-1.14-2.58-2.24-5.18-3.3-7.8-.18-.45-.2-1.05-.07-1.52,.86-3.25,1.71-6.5,2.71-9.7,.28-.92,1.03-1.69,1.57-2.52,.14-.21,.29-.41,.43-.62-.06-.05-.12-.1-.18-.14Z"/><path class="cls-1" d="M285.44,476.07c.26-.35,.44-.77,.75-.98,1.47-.97,2.12-2.51,2.84-4.01,1.8-3.77,3.58-7.56,5.37-11.34,.09-.2,.24-.37,.43-.66,.66,3.22,1.03,6.32,1.02,9.48-.01,2.42,.18,4.84,.26,7.25,.04,1.31-.56,2.57-2.27,1.67-1.83-.95-3.81-1.36-5.81-1.64-.78-.11-1.6,.12-2.58,.22Z"/><path class="cls-1" d="M337.52,498.81c.1,.61,.19,1.22,.31,1.95-1.59-.61-1.98-1.97-2.53-3.42,1.06,.46,1.99,.86,2.93,1.26,.03-.06,.06-.13,.09-.19-.32-.17-.63-.37-.96-.52-1.31-.59-2.53-1.12-3.16-2.71-.31-.79-1.49-1.28-2.35-1.79-1.17-.68-2.4-1.25-3.6-1.87-.3-.16-.58-.36-.74-.46,1.87-1.02,3.75-2.05,5.68-3.12,.76,1.11,1.59,2.45,2.55,3.68,.67,.85,1.47,1.62,2.32,2.29,.86,.68,1.55,1.4,1.81,2.52,.24,1.01,.69,1.97,.88,2.98,.12,.65-.06,1.36-.11,2.05l-.39,.05-1.23-3.44c-.09,.03-.18,.07-.27,.1,.33,1.04,.68,2.07,.98,3.12,.07,.26-.04,.57-.07,.86-.34-.11-.83-.11-.97-.34-.28-.46-.37-1.04-.53-1.58-.15-.49-.28-.98-.42-1.47-.07,.02-.14,.04-.21,.05Z"/><path class="cls-1" d="M296.33,491.75c-1.93-1.44-3.92-2.8-5.76-4.35-1.46-1.23-2.73-2.7-4.06-4.08-.24-.25-.42-.58-.58-.89-.38-.73-.24-1.03,.57-.96,1.2,.1,2.38,.32,3.58,.48,.9,.12,1.81,.16,2.7,.34,.41,.08,.89,.31,1.13,.63,.84,1.14,1.61,2.34,2.37,3.55,.2,.31,.35,.71,.36,1.07,.04,1.36,.02,2.72,.02,4.07-.11,.04-.21,.09-.32,.13Z"/><path class="cls-1" d="M318.09,445.29c.24,.48,.48,.81,.58,1.19,.53,2.1-.22,4.06-.72,6.03-.25,.97-1.79,1.47-2.63,.94-.19-.12-.33-.43-.35-.66-.05-.58-.02-1.17-.21-1.8-.11,.71-.23,1.43-.33,2.04-2.38-.66-4.77-1.32-7.25-2.01,.11-.63,.25-1.44,.4-2.33,1.69,1.22,3.53,1.57,5.46,.98,.71-.22,1.3-.79,2.02-1.25,.24,.11,.71,.33,1.18,.56,.04-.06,.07-.13,.11-.19-.88-.42-1.8-.88-1.7-2.02,.08-.86,.34-1.74,1.42-2.34,.22,.88,.42,1.65,.66,2.58,.42-.53,.79-1,1.37-1.72Z"/><path class="cls-1" d="M295.05,479.31c-.13,.7-.18,1.2-.32,1.68-.24,.8-.84,1.11-1.62,1.01-2.38-.33-4.75-.68-7.13-1.02-1.52-.22-1.51-.22-1.03-1.78,.24-.75,.37-1.54,.63-2.29,.09-.25,.43-.56,.67-.57,1.07-.04,2.19-.16,3.21,.09,1.75,.44,3.45,1.08,5.12,1.76,.29,.12,.35,.82,.46,1.12Z"/><path class="cls-1" d="M332.18,482.76c2.24,1.8,2.18,3.15,.23,5.01-1.48,1.41-3.3,2.33-5.32,2.8-2.23,.53-3.86-.93-3.53-3.39,3.86,.63,6.75-.85,8.63-4.42Z"/><path class="cls-1" d="M315.43,456.34c-3.74-1.18-7.5-2.05-11.43-1.47,.26-2.21,.6-3.11,2.84-3.15,2.77-.05,5.32,.66,7.67,2.13,.9,.57,1.09,1.4,.92,2.49Z"/><path class="cls-1" d="M322.48,484.45c1.86,.81,3.59,.59,5.3-.3,1.66-.87,2.43-2.39,2.89-4.17,1.3,.95,1.44,2.61,.52,3.87-1.86,2.57-4.42,3.43-7.45,3.05-.97-.12-1.43-1-1.27-2.45Z"/><path class="cls-1" d="M296.55,486.05c-.83-1.22-1.65-2.45-2.5-3.7,1.34-.74,1.35-2.02,1.27-3.33-.04-.64,.03-1.2,.9-1.55,.21,2.88,.41,5.7,.61,8.53-.09,.02-.18,.04-.27,.05Z"/><path class="cls-1" d="M308.38,577.28c-1.04,.65-2.14,.45-3.2,.14-2.63-.77-4.32-2.78-6.04-4.75-1.42-1.64-3.13-2.64-5.35-2.41,.45-.45,.82-.49,1.65-.26,1.87,.51,3.25,1.68,4.51,3.12,.97,1.11,2.05,2.15,3.23,3.02,1.51,1.11,3.25,1.65,5.2,1.15Z"/><path class="cls-1" d="M319.33,447.64v-3.32c.11-.05,.22-.1,.32-.15,.25,.32,.68,.62,.72,.96,.11,.95-.16,1.84-1.05,2.51Z"/><path class="cls-1" d="M326.74,565.45c-.56,1.7-2.06,2.03-3.49,2.37-.7,.17-1.54,.32-2.21-.71,1.17,.78,2.19,.41,3.2,.16,1.07-.26,1.92-.86,2.5-1.83Z"/><path class="cls-1" d="M319.23,441.09c-1.68,.87-3.44,1.05-5.24,1.01,1.73-.33,3.45-.66,5.24-1.01Z"/><path class="cls-1" d="M317.46,444.86c.49-1.03,.87-1.84,1.36-2.88-.22,1.19,.2,2.41-1.36,2.88Z"/><path class="cls-1" d="M327.29,564.05c1.08-1.15,2.17-2.3,3.27-3.46-.73,1.5-1.87,2.61-3.27,3.46Z"/><path class="cls-6" d="M443.99,501.92c-.89,18.07-1.79,36.13-2.68,54.21-1.18-.07-2.17-.11-3.17-.18-.52-.04-.74-.34-.8-.88-.45-4.3-.99-8.59-1.38-12.9-.57-6.11-.7-12.23,.45-18.31,.13-.67,.22-1.35,.38-2.02,.46-1.85,0-3.6-.46-5.37-1.13-4.25-2.32-8.49-3.29-12.78-1.09-4.85-.93-9.72,.4-14.53,.32-1.14,.38-1.04,1.53-.89,2.48,.32,4.98,.7,7.47,.66,4.41-.08,8.82-.45,13.47-.71,.44,1.79,1.04,3.78,1.41,5.81,.74,4.08,.29,8.15-.27,12.21-.88,6.38-3.04,12.42-4.68,18.6-.49,1.84-.6,3.82-.66,5.75-.16,5.55-.91,10.99-2.4,16.33-1.03,3.69-2.07,7.39-3.12,11.16-.19-.14-.31-.21-.4-.31-.89-.96-1.97-1.24-3.22-.98-.45,.09-.98,.28-.92-.57,.22-3.13,.43-6.26,.63-9.38,.2-3.16,.39-6.32,.55-9.49,.24-4.78,.46-9.55,.68-14.33,.13-2.78,.24-5.56,.34-8.33,.14-3.97,.27-7.95,.41-11.92,0-.29,0-.59,0-.88-.09,0-.17,.01-.26,.02Zm-5.6-7.21c4.79,.15,9.58,.3,14.37,.45-4.78-.53-9.57-1.05-14.37-.45Zm10.08,1.67c-.07-.08-.13-.16-.2-.24-1.75,1.42-3.49,2.85-5.24,4.27,.06,.07,.11,.14,.17,.21,1.75-1.42,3.51-2.83,5.26-4.25Zm-3.48,27.54c-.03,.1-.06,.2-.09,.3,1.44,.37,2.87,.73,4.31,1.1,.03-.11,.05-.22,.08-.33-1.43-.36-2.87-.71-4.3-1.07Zm4.81,2.77c-1.49,.21-2.98,.42-4.46,.63,1.54,.2,3.06,.23,4.46-.63Zm-11.18-7.1v.19h3.43v-.19h-3.43Zm11.37-.24c-.02,.1-.04,.2-.06,.3,1.01,.11,2.02,.22,3.03,.32,0-.09,.02-.17,.03-.26-1-.12-2-.24-3-.36Z"/><path class="cls-1" d="M433.03,487.36c.71-2.03,1.27-4.04,2.1-5.93,1-2.27,1.09-4.4,.43-6.85-1.44-5.41-2.5-10.91-3.71-16.38-.34-1.55-.25-1.82,1.26-2.26,2.79-.82,5.57-1.81,8.43-2.19,3.47-.46,6.99-.13,10.36,1.08,1.16,.42,2.34,.77,3.5,1.2,1.2,.45,1.14,.63,.75,1.8-.65,1.96-1.25,3.96-1.6,5.99-.4,2.31-.52,4.67-.73,7.01-.04,.4,0,.88,.17,1.22,.64,1.23,.52,2.49,.14,3.7-1.08,3.49-.11,6.68,1.25,9.83,.18,.41,.31,.83,.47,1.25,.24,.62,0,.9-.62,.94-4.74,.24-9.48,.53-14.22,.71-2.67,.1-5.32-.21-7.99-1.12Z"/><path class="cls-1" d="M459.37,486.69c-.05-1.42-.1-2.74-.15-4.06,0-.11-.01-.23-.06-.32-1.53-3.17-3.1-6.32-4.59-9.51-.28-.59-.42-1.32-.39-1.98,.21-3.98,.47-7.96,1.76-11.77,.2-.6,.51-1.17,.84-1.89,1.21,2.31,1.88,4.62,2.52,6.96,1.32,4.77,2.65,9.53,4.1,14.26,.43,1.39,1.23,2.67,1.94,3.96,.36,.65,.41,1.09-.2,1.61-1.51,1.27-3.28,2.05-5.09,2.74-.13,.05-.29,0-.69,0Z"/><path class="cls-1" d="M431.44,457.62c.42,1.92,.85,3.85,1.26,5.77,.55,2.58,1.11,5.15,1.61,7.74,.11,.55,.13,1.21-.07,1.71-.97,2.55-2.03,5.06-3.06,7.58-.05,.12-.17,.29-.28,.31-2.15,.39-4.25,.31-6.42-.67,3.19-7.24,4.7-14.94,6.96-22.44Z"/><path class="cls-1" d="M470.37,508.45c.15,.4,.24,.64,.24,.64,.24-.44,.52-1.01,.85-1.55,.46-.74,.31-1.7-.44-2.56-.79-.91-1.64-1.74-1.91-3.04-.12-.54-.81-.93-1.11-1.46-1.97-3.41-3.9-6.84-5.83-10.24,1.63-.78,3.07-1.46,4.58-2.18,.52,1.97,1.15,3.97,1.58,6.02,.71,3.37,2.1,6.35,4.41,8.89,.28,.3,.47,.69,.72,1.02,.82,1.07,.95,2.2,.27,3.39-.39,.69-.82,1.36-1.21,2.06-.35,.64-.97,.75-1.51,.6-.57-.16-.84-.71-.63-1.58Zm2.87-2.6c-.49,1-.9,1.84-1.31,2.67,.66-.74,1.38-1.45,1.31-2.67Z"/><path class="cls-1" d="M434.66,473.18c.45,1.66,.87,3.13,1.23,4.61,.06,.25-.13,.57-.23,.84-.92,2.59-1.84,5.19-2.76,7.78-.18,.52-.36,1.02,.16,1.47,.09,.07,.14,.27,.11,.38-.3,1.31-.63,2.62-.95,3.94-.32-.75-.58-1.48-.93-2.15-.8-1.55-.64-3.23-.47-4.82,.22-2,.61-4.02,1.22-5.93,.66-2.04,1.67-3.95,2.6-6.12Z"/><path class="cls-1" d="M441.2,450.81c-.05-1.07-.11-2.11-.16-3.14-.1,0-.2,0-.3,0,0,.21-.04,.43,0,.62,.13,.64,.44,1.26-.6,1.49-1.31,.29-1.95,.12-2.29-.78-.72-1.89-.74-3.84-.49-5.82,.14-1.15,.29-2.3,.37-2.97,.33,.83,.71,2.15,1.37,3.3,.36,.62,1.16,1.07,1.85,1.36,.83,.35,1.12-.05,.86-.95-.07-.25-.14-.5-.22-.82,.44,.55,.92,1,1.19,1.54,.17,.34,.18,.94-.03,1.22-.2,.27-.78,.44-1.14,.37-.55-.11-1.05-.47-1.52-.69,.27,.68,1.35,1.27,2.15,.95,.67-.27,1.01,.05,1.3,.48,.98,1.48,2.37,2.17,4.1,2.23,.02,.4,.04,.75,.07,1.2-2.24-.53-4.43-.45-6.51,.4Z"/><path class="cls-1" d="M426.2,484.34c1.44-.14,2.82-.28,4.19-.42,0,1.05,.06,2.3-.02,3.54-.08,1.31,.28,2.45,.95,3.54,.81,1.3,.51,2.71,.26,4.13-.65-.8-1.49-1.41-1.52-2.56-.02-.85-.44-1.49-1.28-1.83,.91,.82,1.18,1.85,1.04,2.79-.62,.66-1.13,1.19-1.64,1.73-.84-1.53-1-3.1-.07-4.73,.14-.24,.03-.68-.08-.99-.6-1.76-1.24-3.51-1.85-5.21Z"/><path class="cls-1" d="M439.85,453.59c.25-1.73,1.25-2.56,2.84-2.88,2.08-.42,4.08-.3,6.06,.45,.8,.3,1.31,1.46,1.26,2.77-3.34-.84-6.72-.76-10.16-.34Z"/><path class="cls-1" d="M466.04,483.87c.3,.94,.69,1.97,.94,3.04,.06,.24-.3,.75-.58,.88-1.5,.7-3.02,1.34-4.56,1.93-.22,.08-.7-.18-.88-.43-.43-.59-.75-1.26-1.11-1.9,.61-.34,1.22-.67,1.82-1.01,1.37-.78,2.74-1.56,4.38-2.5Z"/><path class="cls-1" d="M424.43,480.86c.37-.03,.77-.16,1.1-.06,1.55,.47,3.12,.54,4.72,.33,.89-.12,.97,.09,.75,1-.29,1.15-1.05,1.6-2.1,1.68-.79,.06-1.59,.08-2.37,.02-1.11-.09-1.4-.45-1.46-1.6-.03-.54,.14-1.19-.64-1.38,0,0,0,0,0,0Z"/><path class="cls-1" d="M431.37,495.86c-.23-.05-.47-.11-.75-.18,.12,.5,.32,.96,.33,1.43,.02,.66-.56,.96-1.15,.67-.95-.47-1.4-2.23-.79-3.09,.56-.79,1.21-.73,1.65,.12,.19,.37,.47,.7,.71,1.04Z"/><path class="cls-1" d="M371.93,495.45c.67,.92,1.44,1.9,2.13,2.94,.28,.43,.42,.99,.52,1.51,.03,.14-.29,.4-.49,.52-.05,.03-.32-.23-.43-.39-.41-.64-.77-1.33-1.21-1.95-.63-.9-.56-1.88-.51-2.63Z"/><path class="cls-1" d="M442.62,557.48c1.68-.83,3.2,.4,3.06,2.64-1.03-.89-2.03-1.75-3.06-2.64Z"/><path class="cls-1" d="M448.19,444.4c-.62,.47-1.3,.69-1.98,.34-2.29-1.2-4-2.97-4.95-5.43-.04-.1,0-.22,.07-.38,.52,1.77,1.8,2.94,3,4.19,1.07,1.11,2.25,1.81,3.86,1.28Z"/><path class="cls-1" d="M448.64,443.68c-1.59-2.03-2.16-4.87-4.53-6.61,1.31,.37,4.57,5.31,4.53,6.61Z"/><path class="cls-1" d="M438.17,556.77c.43-.55,.5-.55,3.56,.61-.3,.02-.62,.11-.91,.05-.91-.2-1.82-.45-2.65-.66Z"/><path class="cls-1" d="M452.06,442.73c1.35,.82,1.97,2.92,1.27,4.49,.16-1.77-.07-3.28-1.27-4.49Z"/><path d="M306.6,510.64c-2.61-.34-5.23-.67-7.84-1.01,.01-.11,.03-.21,.04-.32,2.62,.33,5.23,.66,7.85,.99-.02,.12-.03,.23-.05,.35Z"/><path d="M316.42,508.64c-2.16,.59-4.31,1.19-6.47,1.78-.03-.1-.06-.21-.08-.31,2.15-.61,4.31-1.21,6.46-1.82,.03,.12,.06,.23,.09,.35Z"/><path d="M310.55,532.74c-1.85,.3-3.7,.6-5.55,.9-.02-.1-.04-.21-.06-.31,1.85-.31,3.7-.62,5.55-.93l.06,.34Z"/><path d="M438.39,494.71c4.81-.6,9.59-.08,14.37,.45-4.79-.15-9.58-.3-14.37-.45Z"/><path d="M448.47,496.38c-1.75,1.42-3.51,2.83-5.26,4.25-.06-.07-.11-.14-.17-.21,1.75-1.42,3.49-2.85,5.24-4.27,.07,.08,.13,.16,.2,.24Z"/><path d="M444.98,523.92c1.43,.36,2.87,.71,4.3,1.07-.03,.11-.05,.22-.08,.33-1.44-.37-2.87-.73-4.31-1.1,.03-.1,.06-.2,.09-.3Z"/><path d="M449.8,526.69c-1.4,.86-2.92,.82-4.46,.63,1.49-.21,2.98-.42,4.46-.63Z"/><path d="M438.62,519.59h3.43v.19h-3.43v-.19Z"/><path d="M449.99,519.36c1,.12,2,.24,3,.36,0,.09-.02,.17-.03,.26-1.01-.11-2.02-.22-3.03-.32,.02-.1,.04-.2,.06-.3Z"/><path d="M376.49,498.94c.07,1.22-.65,1.94-1.31,2.67,.41-.83,.82-1.67,1.31-2.67Z"/></g></svg>