<svg width="132" height="163" viewBox="0 0 132 163" fill="none" xmlns="http://www.w3.org/2000/svg">
                        <path d="M86.8283 140.08H45.3447C42.032 140.08 37.8159 139.704 35.0302 136.845C32.3199 134.061 32.3952 130.599 32.4704 128.266V121.569C13.4978 108.927 1 86.9547 1 66.0355C1 46.245 9.884 27.7338 25.3181 15.3177C40.7521 2.90163 61.0045 -1.76378 80.8053 2.60063C99.6273 6.73933 115.89 19.3059 124.322 36.2369C140.659 69.1207 124.924 104.713 99.7779 121.644V127.288C99.8532 129.47 99.9285 133.459 96.8417 136.619C94.5077 138.876 91.1951 140.08 86.8283 140.08ZM43.6884 128.718C44.0648 128.718 44.5918 128.793 45.2694 128.793H86.8283C87.5812 128.793 88.1082 128.718 88.4094 128.643C88.4094 128.417 88.4094 128.116 88.4094 127.89V118.409C88.4094 116.452 89.4634 114.571 91.1198 113.593C113.405 100.123 128.162 69.3465 114.083 41.1281C107.156 27.207 93.7549 16.8979 78.2455 13.5117C61.8327 9.89978 45.0436 13.7375 32.2446 24.0466C19.4456 34.3557 12.1426 49.6312 12.1426 66.0355C12.1426 86.9547 26.598 105.014 40.9027 113.668C42.6343 114.722 43.6131 116.528 43.6131 118.484V128.643C43.6884 128.643 43.6884 128.643 43.6884 128.718Z" fill="#FFCB73" fill-opacity="0.86" stroke="black" stroke-width="0.2"/>
                        <path d="M92.3236 162.655C91.7966 162.655 91.2695 162.58 90.7425 162.429C74.4803 157.764 57.3899 157.764 41.1273 162.429C38.1157 163.257 35.0289 161.526 34.1255 158.516C33.222 155.506 35.0289 152.421 38.0404 151.518C56.2605 146.326 75.6096 146.326 93.8293 151.518C96.8409 152.346 98.5725 155.506 97.7443 158.516C97.0667 161.075 94.8081 162.655 92.3236 162.655Z" fill="#FFCB73" fill-opacity="0.86" stroke="black" stroke-width="0.2"/>
                    </svg>