<svg width="643" height="438" viewBox="0 0 643 438" fill="none" xmlns="http://www.w3.org/2000/svg">
                            <path d="M543.041 331.245L536.169 432.742C536.131 433.258 535.896 433.741 535.509 434.094C535.123 434.447 534.614 434.645 534.085 434.647C533.807 434.648 533.532 434.593 533.276 434.487C533.02 434.38 532.788 434.225 532.595 434.029C532.402 433.833 532.251 433.601 532.152 433.347C532.052 433.093 532.006 432.822 532.017 432.55L534.841 331.245H543.041Z" fill="#263238" stroke="#263238" stroke-linecap="round" stroke-linejoin="round"/>
                            <path d="M560.62 331.245L567.491 432.742C567.525 433.257 567.758 433.74 568.142 434.093C568.526 434.447 569.032 434.645 569.56 434.647C569.839 434.647 570.115 434.593 570.371 434.487C570.628 434.381 570.861 434.225 571.055 434.03C571.25 433.834 571.402 433.602 571.503 433.348C571.604 433.094 571.652 432.823 571.644 432.55L568.79 331.304L560.62 331.245Z" fill="#263238" stroke="#263238" stroke-linecap="round" stroke-linejoin="round"/>
                            <path d="M491.726 331.245L498.597 432.742C498.631 433.257 498.864 433.74 499.248 434.093C499.632 434.447 500.138 434.645 500.666 434.647C500.945 434.647 501.221 434.593 501.477 434.487C501.734 434.381 501.967 434.225 502.161 434.03C502.355 433.834 502.508 433.602 502.609 433.348C502.71 433.094 502.758 432.823 502.75 432.55L499.88 331.304L491.726 331.245Z" fill="#263238" stroke="#263238" stroke-linecap="round" stroke-linejoin="round"/>
                            <path d="M463.652 331.245L456.781 432.742C456.743 433.258 456.507 433.741 456.121 434.094C455.734 434.447 455.226 434.645 454.697 434.647C454.419 434.645 454.144 434.589 453.888 434.483C453.632 434.376 453.4 434.22 453.206 434.025C453.012 433.83 452.86 433.599 452.758 433.346C452.656 433.093 452.607 432.822 452.613 432.55L455.482 331.304L463.652 331.245Z" fill="#263238" stroke="#263238" stroke-linecap="round" stroke-linejoin="round"/>
                            <path d="M583.363 228.921C583.363 228.921 514.802 226.41 509.003 226.41C503.204 226.41 501.86 228.921 501.86 228.921L492.074 296.403C492.074 296.403 461.644 287.911 455.679 289.018C449.714 290.126 458.624 332.471 458.624 332.471H493.055L493.674 329.93H571.418L592.062 233.75C590.808 229.349 583.363 228.921 583.363 228.921Z" fill="white" stroke="#263238" stroke-linecap="round" stroke-linejoin="round"/>
                            <path d="M557.267 271.132C557.267 271.132 564.244 315.441 556.24 320.611C555.002 321.408 548.281 325.189 541.999 324.569C536.955 324.067 501.315 324.569 501.315 324.569C501.315 324.569 496.362 315.353 495.365 308.559C494.368 301.765 502.161 272.609 502.161 272.609L557.267 271.132Z" fill="white" stroke="#263238" stroke-linecap="round" stroke-linejoin="round"/>
                            <path d="M498.899 294.867C498.899 294.867 447.312 300.11 444.881 301.528C442.449 302.946 431.289 312.472 433.207 318.661C435.125 324.849 430.293 325.322 434.717 326.282C439.142 327.242 501.859 327.227 501.859 327.227" fill="#FFCB73"/>
                            <path d="M498.899 294.867C498.899 294.867 447.312 300.11 444.881 301.528C442.449 302.946 431.289 312.472 433.207 318.661C435.125 324.849 430.293 325.322 434.717 326.282C439.142 327.242 501.859 327.227 501.859 327.227" stroke="#263238" stroke-linecap="round" stroke-linejoin="round"/>
                            <path d="M451.978 332.397H574.558V323.447H451.978V332.397Z" fill="white" stroke="#263238" stroke-linecap="round" stroke-linejoin="round"/>
                            <path d="M545.608 296.772H471.761C471.761 296.772 467.88 301.056 467.382 310.065C466.883 319.075 467.88 321.009 474.691 323.358C481.502 325.706 541.999 324.51 541.999 324.51" fill="#FFCB73"/>
                            <path d="M545.608 296.772H471.761C471.761 296.772 467.88 301.056 467.382 310.065C466.883 319.075 467.88 321.009 474.691 323.358C481.502 325.706 541.999 324.51 541.999 324.51" stroke="#263238" stroke-linecap="round" stroke-linejoin="round"/>
                            <path d="M487.422 411.385L479.69 393.469L467.02 395.818L476.715 411.798L471.128 422.743L459.046 430.467C459.046 430.467 457.642 431.826 463.682 431.368C469.723 430.91 482.257 431.368 482.257 431.368L490.156 422.285C490.156 422.285 493.025 417.662 487.422 411.385Z" fill="white" stroke="#263238" stroke-linecap="round" stroke-linejoin="round"/>
                            <path d="M490.804 419.213L491.122 430.925H489.234L486.712 425.076L490.804 419.213Z" fill="#263238" stroke="#263238" stroke-linecap="round" stroke-linejoin="round"/>
                            <path d="M482.273 431.427L490.171 422.344C490.171 422.344 492.209 418.962 489.401 414.088C483.783 423.481 476.307 426.302 476.307 426.302L468.515 424.471L459.061 430.527C459.061 430.527 457.657 431.885 463.698 431.427C469.738 430.97 482.273 431.427 482.273 431.427Z" fill="#263238" stroke="#263238" stroke-linecap="round" stroke-linejoin="round"/>
                            <path d="M457.053 320.094L482.952 396.674L464.574 399.865L428.33 320.108C428.33 320.108 425.415 308.204 433.192 304.408C440.97 300.612 463.849 298.692 463.849 298.692" fill="#FFCB73"/>
                            <path d="M457.053 320.094L482.952 396.674L464.574 399.865L428.33 320.108C428.33 320.108 425.415 308.204 433.192 304.408C440.97 300.612 463.849 298.692 463.849 298.692" stroke="#263238" stroke-linecap="round" stroke-linejoin="round"/>
                            <path d="M540.127 332.382C540.127 332.382 531.202 289.978 537.182 288.93C543.162 287.881 573.577 296.315 573.577 296.315L583.363 228.921C583.363 228.921 593.693 227.326 594.78 236.305C595.867 245.285 574.559 332.382 574.559 332.382H540.127Z" fill="#263238" stroke="#263238" stroke-linecap="round" stroke-linejoin="round"/>
                            <path d="M435.034 207.534L430.428 200.149C429.984 199.442 429.359 198.86 428.615 198.461C427.871 198.062 427.033 197.86 426.185 197.874L421.851 197.948L414.436 195.777C413.965 195.643 413.463 195.648 412.996 195.793C412.528 195.937 412.114 196.215 411.808 196.589L411.536 196.929L418.362 199.883L411.551 202.335L404.318 198.746C404.032 198.603 403.705 198.563 403.393 198.633C403.08 198.703 402.804 198.879 402.611 199.13C402.392 199.408 402.294 199.76 402.339 200.109C402.384 200.458 402.569 200.775 402.853 200.991L412.971 208.627C413.288 208.868 413.654 209.04 414.045 209.132C414.435 209.223 414.841 209.232 415.236 209.158L426.426 206.958L429.552 210.296L435.034 207.534Z" fill="white" stroke="#263238" stroke-linecap="round" stroke-linejoin="round"/>
                            <path d="M513.05 192.38L471.566 234.814L431.969 203.517L426.502 207.401L470.071 255.683L507.84 235.788L513.05 192.38Z" fill="white" stroke="#263238" stroke-linecap="round" stroke-linejoin="round"/>
                            <path d="M575.118 203.221L596.864 268.577L578.108 269.109L559.457 238.432C559.457 238.432 569.938 207.49 575.118 203.221Z" fill="white" stroke="#263238" stroke-linecap="round" stroke-linejoin="round"/>
                            <path d="M551.453 191.997L575.117 203.295L555.304 257.485L557.645 272.595L502.161 272.683L508.776 248.343L504.245 232.746C503.657 230.722 503.626 228.582 504.155 226.543L513.034 192.454L536.351 188.792L551.453 191.997Z" fill="white" stroke="#263238" stroke-linecap="round" stroke-linejoin="round"/>
                            <path d="M550.321 188.821C550.321 188.821 554.972 191.893 555.123 194.625C555.198 196.235 555.123 199.056 554.972 201.213C554.889 202.897 554.495 204.554 553.809 206.101L545.428 215.997L535.732 208.509L527.683 212.526C527.683 212.526 526.173 200.459 529.692 192.041C533.21 183.622 548.524 186.709 550.321 188.821Z" fill="white" stroke="#263238" stroke-linecap="round" stroke-linejoin="round"/>
                            <path d="M556.98 165.411C556.98 165.411 555.077 172.101 554.186 176.532C553.295 180.963 551.498 189.825 551.664 193.148C551.831 196.471 537.529 210.621 535.732 208.509C533.935 206.397 532.047 194.123 532.047 194.123L533.829 174.273C533.829 174.273 552.465 154.082 556.98 165.411Z" fill="white" stroke="#263238" stroke-linecap="round" stroke-linejoin="round"/>
                            <path d="M527.094 155.072C527.094 155.072 524.542 159.193 524.542 160.98C524.542 162.767 525.433 166.267 525.282 167.287C525.131 168.306 522.594 171.717 522.262 172.87C522.095 173.338 522.109 173.851 522.301 174.31C522.492 174.77 522.849 175.145 523.304 175.366C523.921 175.675 524.52 176.015 525.101 176.385C525.101 176.385 525.856 185.483 527.064 187.831C528.272 190.18 529.314 191.213 532.909 191.509C536.503 191.804 545.065 188.127 546.258 185.187C547.451 182.248 547.618 178.733 547.769 174.479C547.92 170.226 544.914 164.141 542.664 158.336C540.414 152.532 530.991 149.341 527.094 155.072Z" fill="white" stroke="#263238" stroke-linecap="round" stroke-linejoin="round"/>
                            <path d="M565.829 185.114C572.193 185.114 577.351 180.068 577.351 173.844C577.351 167.621 572.193 162.575 565.829 162.575C559.465 162.575 554.306 167.621 554.306 173.844C554.306 180.068 559.465 185.114 565.829 185.114Z" fill="#263238" stroke="#263238" stroke-linecap="round" stroke-linejoin="round"/>
                            <path d="M527.034 154.437C527.034 154.437 531.67 150.523 540.007 158.307C548.343 166.09 545.171 177.345 550.744 179.678C556.316 182.012 566.631 170.344 567.824 164.525C569.017 158.705 565.438 146.639 554.308 144.305C543.178 141.971 529.541 143.566 527.034 154.437Z" fill="#263238" stroke="#263238" stroke-linecap="round" stroke-linejoin="round"/>
                            <path d="M527.033 154.437C526.935 153.522 527.051 152.597 527.372 151.732C527.694 150.867 528.213 150.085 528.89 149.446C529.567 148.806 530.384 148.326 531.279 148.042C532.174 147.758 533.124 147.677 534.056 147.806C541.607 148.204 542.392 159.858 546.364 164.525C550.335 169.192 552.329 168.409 552.329 168.409C552.329 168.409 545.578 170.344 541.199 168.011C536.819 165.677 534.705 152.517 527.033 154.437Z" fill="#263238" stroke="#263238" stroke-linecap="round" stroke-linejoin="round"/>
                            <path d="M539.371 146.447C543.344 148.847 546.498 152.348 548.432 156.505C551.86 163.609 551.86 169.472 560 169.059C560 169.059 556.149 169.901 550.154 166.962C544.159 164.022 542.875 155.663 539.024 152.31C536.923 150.365 534.206 149.182 531.322 148.957" stroke="white" stroke-width="0.5" stroke-linecap="round" stroke-linejoin="round"/>
                            <path d="M567.823 164.525C567.823 164.525 567.476 175.188 559.109 177.433" stroke="white" stroke-width="0.5" stroke-linecap="round" stroke-linejoin="round"/>
                            <path d="M544.475 175.41C544.475 175.41 552.449 165.204 554.322 172.825C556.194 180.446 549.791 182.307 546.771 181.436C543.75 180.565 544.173 178.984 544.173 178.984" fill="white"/>
                            <path d="M544.475 175.41C544.475 175.41 552.449 165.204 554.322 172.825C556.194 180.446 549.791 182.307 546.771 181.436C543.75 180.565 544.173 178.984 544.173 178.984" stroke="#263238" stroke-linecap="round" stroke-linejoin="round"/>
                            <path d="M526.732 262.743C526.732 262.743 511.509 264.811 508.972 264.811C506.435 264.811 500.092 272.668 500.092 272.668H528L526.732 262.743Z" fill="white" stroke="#263238" stroke-linecap="round" stroke-linejoin="round"/>
                            <path d="M591.397 252.729L596.864 264.781C597.109 265.491 597.179 266.247 597.069 266.988C596.959 267.729 596.671 268.434 596.229 269.046C595.788 269.657 595.205 270.158 594.528 270.508C593.851 270.858 593.099 271.046 592.333 271.058L526.339 271.427L526.762 262.743L577.926 254.826" fill="white"/>
                            <path d="M591.397 252.729L596.864 264.781C597.109 265.491 597.179 266.247 597.069 266.988C596.959 267.729 596.671 268.434 596.229 269.046C595.788 269.657 595.205 270.158 594.528 270.508C593.851 270.858 593.099 271.046 592.333 271.058L526.339 271.427L526.762 262.743L577.926 254.826" stroke="#263238" stroke-linecap="round" stroke-linejoin="round"/>
                            <path d="M503.067 419.213L503.384 430.925H501.497L498.975 425.076L503.067 419.213Z" fill="#263238" stroke="#263238" stroke-linecap="round" stroke-linejoin="round"/>
                            <path d="M499.685 411.385L497.253 394.341L484.598 395.138L488.977 411.917L483.39 422.861L471.309 430.586C471.309 430.586 469.919 431.944 475.96 431.487C482.001 431.029 494.535 431.487 494.535 431.487L502.433 422.403C502.433 422.403 505.287 417.662 499.685 411.385Z" fill="white" stroke="#263238" stroke-linecap="round" stroke-linejoin="round"/>
                            <path d="M494.535 431.427L502.433 422.344C502.433 422.344 504.472 418.962 501.648 414.088C496.03 423.481 488.555 426.302 488.555 426.302L480.777 424.471L471.309 430.527C471.309 430.527 469.919 431.885 475.96 431.427C482.001 430.97 494.535 431.427 494.535 431.427Z" fill="#263238" stroke="#263238" stroke-linecap="round" stroke-linejoin="round"/>
                            <path d="M493.886 306.904L499.307 397.472L482.137 397.871L465.374 315.589C465.374 315.589 465.691 299.918 470.81 298.116C475.93 296.315 489.521 298.249 489.521 298.249" fill="#FFCB73"/>
                            <path d="M493.886 306.904L499.307 397.472L482.137 397.871L465.374 315.589C465.374 315.589 465.691 299.918 470.81 298.116C475.93 296.315 489.521 298.249 489.521 298.249" stroke="#263238" stroke-linecap="round" stroke-linejoin="round"/>
                            <path d="M418.833 111.959L440.142 170.373C440.142 170.373 437.333 183.592 428.876 183.046C420.419 182.499 418.169 170.92 415.919 169.266C413.669 167.611 410.286 154.939 410.286 154.939L418.833 111.959Z" fill="white" stroke="#263238" stroke-linecap="round" stroke-linejoin="round"/>
                            <path d="M363.713 100.247L329.07 112.476L342.359 206.426H404.865L418.834 111.959L381.442 100.513L363.713 100.247Z" fill="white" stroke="#263238" stroke-linecap="round" stroke-linejoin="round"/>
                            <path d="M367.05 116.346L372.049 123.716L367.714 186.221L374.087 202.497L380.626 186.664L375.024 124.646L379.524 113.997L373.287 105.977L367.05 116.346Z" fill="#FFCB73" stroke="#263238" stroke-linecap="round" stroke-linejoin="round"/>
                            <path d="M373.967 113.303L365.042 119.846L359.167 102.787L363.26 94.1471L381.518 93.7188L385.973 97.6327L385.082 119.403L373.967 113.303Z" fill="white" stroke="#263238" stroke-linecap="round" stroke-linejoin="round"/>
                            <path d="M383.405 89.716L382.015 100.69L372.018 113.303L364.543 100.513V79.9385C364.543 79.9385 377.636 83.1435 383.405 89.716Z" fill="white" stroke="#263238" stroke-linecap="round" stroke-linejoin="round"/>
                            <path d="M359.408 66.9116C359.408 56.9421 366.838 48.863 376.02 48.863C385.202 48.863 390.291 57.3851 390.291 67.3547C390.291 70.5745 389.612 76.0983 389.34 79.0375C388.872 84.0592 387.316 86.186 384.281 90.6908C374.329 105.46 366.159 83.7933 361.976 76.5119C360.282 73.5839 359.398 70.2754 359.408 66.9116Z" fill="white" stroke="#263238" stroke-linecap="round" stroke-linejoin="round"/>
                            <path d="M383.239 70.043L384.644 80.3374L379.706 80.2045" fill="white"/>
                            <path d="M383.239 70.043L384.644 80.3374L379.706 80.2045" stroke="#263238" stroke-linecap="round" stroke-linejoin="round"/>
                            <path d="M394.263 68.2559L370.523 68.3592C370.231 69.2622 370.186 70.2241 370.393 71.1492C370.6 72.0743 371.051 72.9303 371.701 73.632C373.211 75.109 379.357 74.592 380.339 74.208C381.321 73.824 381.849 69.5999 381.849 69.5999H383.616C383.616 69.5999 383.812 74.0308 386.349 74.4001C388.886 74.7693 392.194 74.6511 392.828 74.208C395.637 72.3618 394.263 68.2559 394.263 68.2559Z" fill="white" stroke="#263238" stroke-linecap="round" stroke-linejoin="round"/>
                            <path d="M362.338 78.1811C362.338 78.1811 367.684 88.8891 368.952 92.5962C370.221 96.3034 376.503 99.1983 382.861 97.1306C389.219 95.0628 387.497 85.8613 387.497 85.8613C387.497 85.8613 380.747 80.2193 379.493 81.4304C378.24 82.6415 371.474 88.0324 371.051 86.7918C370.629 85.5511 367.684 78.1367 367.684 78.1367L366.31 72.8787L369.134 71.1064C369.541 70.7743 369.806 70.3044 369.876 69.7901C369.946 69.2757 369.816 68.7544 369.511 68.3297L368.182 66.4539C368.018 66.2242 367.903 65.9647 367.843 65.6907C367.784 65.4168 367.781 65.1339 367.835 64.8588C368.182 63.2489 369.134 59.911 371.338 58.9509C374.359 57.7251 378.028 59.5122 381.411 60.3393C384.794 61.1664 388.464 58.1829 388.464 58.1829L389.974 63.0864C393.322 60.0132 395.701 56.0669 396.83 51.7138C398.521 44.6982 381.23 41.8181 375.688 41.8181C370.145 41.8181 361.356 44.7721 358.819 52.5409C356.282 60.3097 360.843 76.7927 362.338 78.1811Z" fill="#263238" stroke="#263238" stroke-linecap="round" stroke-linejoin="round"/>
                            <path d="M376.021 51.7581C376.021 51.7581 379.162 56.3662 375.039 57.3262C370.916 58.2863 362.882 54.8301 359.349 56.1742" stroke="white" stroke-width="0.5" stroke-linecap="round" stroke-linejoin="round"/>
                            <path d="M368.953 61.9197C368.953 61.9197 362.489 61.1517 359.892 63.8397" stroke="white" stroke-width="0.5" stroke-linecap="round" stroke-linejoin="round"/>
                            <path d="M384.508 85.2115C384.508 85.2115 379.751 87.6337 377.395 84.7537" stroke="white" stroke-width="0.5" stroke-linecap="round" stroke-linejoin="round"/>
                            <path d="M363.139 74.9171C363.139 74.9171 358.472 69.8954 358.472 75.3749C358.472 80.8545 359.877 80.8545 362.671 82.7598C365.464 84.6651 366.416 82.3019 366.416 82.3019" fill="white"/>
                            <path d="M363.139 74.9171C363.139 74.9171 358.472 69.8954 358.472 75.3749C358.472 80.8545 359.877 80.8545 362.671 82.7598C365.464 84.6651 366.416 82.3019 366.416 82.3019" stroke="#263238" stroke-linecap="round" stroke-linejoin="round"/>
                            <path d="M425.449 415.373H425.66L425.252 413.364L404.865 206.441H342.36L321.806 415.358H322.033L335.292 416.466C335.292 416.466 350.001 368.169 350.001 364.565C350.001 360.961 354.199 327.641 354.199 327.641L375.055 255.934L393.494 327.641C393.494 327.641 397.692 361.035 397.692 364.565C397.692 368.095 412.416 416.495 412.416 416.495L424.89 415.447H425.449V415.373Z" fill="#263238" stroke="#263238" stroke-linecap="round" stroke-linejoin="round"/>
                            <path d="M400.198 218.611L386.29 238.033" stroke="white" stroke-width="0.5" stroke-linecap="round" stroke-linejoin="round"/>
                            <path d="M392.753 222.983L384.311 236.586" stroke="white" stroke-width="0.5" stroke-linecap="round" stroke-linejoin="round"/>
                            <path d="M353.035 222.023L365.434 235.124" stroke="white" stroke-width="0.5" stroke-linecap="round" stroke-linejoin="round"/>
                            <path d="M352.039 226.867L369.904 244.355" stroke="white" stroke-width="0.5" stroke-linecap="round" stroke-linejoin="round"/>
                            <path d="M346.074 208.42H401.195" stroke="white" stroke-width="0.5" stroke-linecap="round" stroke-linejoin="round"/>
                            <path d="M322.032 415.358C322.032 415.358 314.073 421.487 309.482 423.171C304.891 424.855 296.313 429.33 296.313 429.33C296.313 429.33 296.313 432.136 303.759 432.136H332.98L332.482 415.358H322.032Z" fill="#263238" stroke="#263238" stroke-linecap="round" stroke-linejoin="round"/>
                            <path d="M332.875 429.079C321.206 429.6 309.515 429.418 297.869 428.532L296.359 429.33C296.359 429.33 296.359 432.136 303.804 432.136H333.026L332.875 429.079Z" fill="white" stroke="#263238" stroke-linecap="round" stroke-linejoin="round"/>
                            <path d="M424.24 415.358C424.24 415.358 432.213 421.487 436.789 423.171C441.365 424.855 449.973 429.33 449.973 429.33C449.973 429.33 449.973 432.136 442.513 432.136H413.306L413.835 415.358H424.24Z" fill="#263238" stroke="#263238" stroke-linecap="round" stroke-linejoin="round"/>
                            <path d="M413.397 429.079C425.066 429.6 436.756 429.418 448.402 428.532L449.913 429.33C449.913 429.33 449.913 432.136 442.452 432.136H413.306L413.397 429.079Z" fill="white" stroke="#263238" stroke-linecap="round" stroke-linejoin="round"/>
                            <path d="M329.069 112.476L306.054 172.574H328.133L336.379 156.18L329.069 112.476Z" fill="white" stroke="#263238" stroke-linecap="round" stroke-linejoin="round"/>
                            <path d="M429.752 163.269C420.54 159.547 390.986 157.701 389.446 157.701C387.905 157.701 339.867 153.831 335.926 153.27C331.984 152.709 327.469 161.541 327.469 161.541L348.309 160.98L373.665 165.942C373.665 165.942 425.01 184.124 428.876 183.031C429.403 182.859 429.88 182.565 430.266 182.174" fill="white"/>
                            <path d="M429.752 163.269C420.54 159.547 390.986 157.701 389.446 157.701C387.905 157.701 339.867 153.831 335.926 153.27C331.984 152.709 327.469 161.541 327.469 161.541L348.309 160.98L373.665 165.942C373.665 165.942 425.01 184.124 428.876 183.031C429.403 182.859 429.88 182.565 430.266 182.174" stroke="#263238" stroke-linecap="round" stroke-linejoin="round"/>
                            <path d="M322.394 160.448L401.829 152.738L402.403 159.34L333.66 179.737C333.66 179.737 321.277 182.484 311.687 180.83C302.098 179.176 306.628 169.812 308.878 164.303" fill="white"/>
                            <path d="M322.394 160.448L401.829 152.738L402.403 159.34L333.66 179.737C333.66 179.737 321.277 182.484 311.687 180.83C302.098 179.176 306.628 169.812 308.878 164.303" stroke="#263238" stroke-linecap="round" stroke-linejoin="round"/>
                            <path d="M401.844 152.738L417.052 152.177L421.552 160.994L402.403 159.355L401.844 152.738Z" fill="white" stroke="#263238" stroke-linecap="round" stroke-linejoin="round"/>
                            <path d="M503.127 282.328L516.099 433.377C516.133 433.602 516.214 433.818 516.337 434.011C516.459 434.205 516.621 434.372 516.812 434.502C517.003 434.632 517.219 434.722 517.447 434.768C517.675 434.813 517.91 434.812 518.138 434.765C518.527 434.671 518.867 434.443 519.098 434.123C519.328 433.803 519.432 433.412 519.391 433.023L510.557 282.372L503.127 282.328Z" fill="#263238" stroke="#263238" stroke-linecap="round" stroke-linejoin="round"/>
                            <path d="M590.309 282.328L603.326 433.879C603.358 434.105 603.438 434.322 603.56 434.517C603.682 434.711 603.844 434.879 604.035 435.01C604.227 435.14 604.444 435.23 604.673 435.275C604.901 435.319 605.137 435.317 605.365 435.268C605.754 435.174 606.094 434.945 606.325 434.625C606.555 434.305 606.659 433.914 606.619 433.525L597.754 282.328H590.309Z" fill="#263238" stroke="#263238" stroke-linecap="round" stroke-linejoin="round"/>
                            <path d="M230.528 282.328L223.747 432.063C223.71 432.455 223.817 432.848 224.05 433.171C224.282 433.493 224.625 433.723 225.016 433.82C225.24 433.877 225.474 433.885 225.702 433.845C225.93 433.805 226.147 433.718 226.337 433.589C226.528 433.46 226.688 433.293 226.806 433.098C226.925 432.904 226.999 432.687 227.024 432.461L238.003 282.328H230.528Z" fill="#263238" stroke="#263238" stroke-linecap="round" stroke-linejoin="round"/>
                            <path d="M150.171 282.328L143.346 431.501C143.312 431.896 143.422 432.289 143.657 432.611C143.893 432.933 144.237 433.162 144.629 433.259C144.853 433.313 145.087 433.32 145.314 433.279C145.541 433.238 145.756 433.15 145.946 433.022C146.136 432.893 146.296 432.727 146.415 432.534C146.534 432.34 146.61 432.124 146.638 431.9L157.571 282.269L150.171 282.328Z" fill="#263238" stroke="#263238" stroke-linecap="round" stroke-linejoin="round"/>
                            <path d="M607.282 273.953H145.338V286.921H607.282V273.953Z" fill="#FFCB73" stroke="#263238" stroke-linecap="round" stroke-linejoin="round"/>
                            <path d="M607.282 273.953H145.338V278.399H607.282V273.953Z" fill="#263238" stroke="#263238" stroke-linecap="round" stroke-linejoin="round"/>
                            <path d="M607.268 273.953H491.68V286.921H607.268V273.953Z" fill="#263238" stroke="#263238" stroke-linecap="round" stroke-linejoin="round"/>
                            <path d="M611.391 269.64H141.217V274.588H611.391V269.64Z" fill="#FFCB73" stroke="#263238" stroke-linecap="round" stroke-linejoin="round"/>
                            <path d="M611.375 269.64H496.497V274.588H611.375V269.64Z" fill="#263238" stroke="#263238" stroke-linecap="round" stroke-linejoin="round"/>
                            <path d="M245.946 269.197H309.04C309.281 269.199 309.517 269.131 309.718 269.003C309.92 268.874 310.078 268.69 310.173 268.474L327.646 229.511C327.726 229.329 327.759 229.129 327.74 228.931C327.722 228.733 327.654 228.543 327.541 228.377C327.429 228.211 327.276 228.076 327.096 227.982C326.917 227.889 326.716 227.841 326.513 227.842H263.418C263.182 227.842 262.951 227.909 262.752 228.035C262.554 228.161 262.397 228.34 262.301 228.551L244.889 267.514C244.807 267.691 244.772 267.886 244.785 268.08C244.797 268.274 244.859 268.463 244.963 268.628C245.067 268.794 245.211 268.933 245.382 269.032C245.554 269.131 245.747 269.188 245.946 269.197Z" fill="white" stroke="#263238" stroke-linecap="round" stroke-linejoin="round"/>
                            <path d="M251.865 266.155H305.703C305.904 266.155 306.101 266.097 306.27 265.99C306.439 265.882 306.572 265.729 306.654 265.549L321.559 232.303C321.64 232.146 321.678 231.971 321.669 231.796C321.661 231.62 321.606 231.45 321.51 231.301C321.414 231.153 321.281 231.031 321.123 230.947C320.965 230.864 320.788 230.822 320.608 230.826H266.771C266.565 230.824 266.363 230.882 266.191 230.993C266.019 231.103 265.885 231.261 265.804 231.446L250.929 264.722C250.859 264.876 250.829 265.045 250.842 265.212C250.855 265.38 250.911 265.543 251.003 265.685C251.096 265.827 251.223 265.944 251.374 266.026C251.524 266.108 251.693 266.152 251.865 266.155Z" fill="#FFCB73" stroke="#263238" stroke-linecap="round" stroke-linejoin="round"/>
                            <path d="M309.917 266.613H215.125V269.64H309.917V266.613Z" fill="white" stroke="#263238" stroke-linecap="round" stroke-linejoin="round"/>
                            <path d="M309.932 266.613H263.978V269.64H309.932V266.613Z" fill="white" stroke="#263238" stroke-linecap="round" stroke-linejoin="round"/>
                            <path d="M340.377 245.536H323.659V269.7H340.377V245.536Z" fill="white" stroke="#263238" stroke-linecap="round" stroke-linejoin="round"/>
                            <path d="M339.637 266.406H337.885C337.52 266.406 337.171 266.264 336.913 266.012C336.655 265.76 336.511 265.418 336.511 265.062C336.511 264.705 336.655 264.363 336.913 264.111C337.171 263.859 337.52 263.718 337.885 263.718H339.637C340.328 263.714 340.99 263.443 341.48 262.965C341.969 262.487 342.245 261.839 342.249 261.163V255.255C342.245 254.578 341.969 253.931 341.48 253.452C340.99 252.974 340.328 252.703 339.637 252.7H337.386C337.206 252.7 337.027 252.665 336.861 252.597C336.694 252.53 336.542 252.431 336.415 252.306C336.287 252.181 336.186 252.033 336.117 251.87C336.048 251.707 336.012 251.532 336.012 251.356C336.012 251.179 336.048 251.004 336.117 250.841C336.186 250.678 336.287 250.53 336.415 250.405C336.542 250.28 336.694 250.181 336.861 250.114C337.027 250.046 337.206 250.011 337.386 250.011H339.637C340.341 250.011 341.038 250.147 341.688 250.411C342.339 250.674 342.93 251.06 343.427 251.547C343.925 252.034 344.32 252.612 344.59 253.248C344.859 253.884 344.998 254.566 344.998 255.255V261.163C344.998 261.851 344.859 262.533 344.59 263.169C344.32 263.805 343.925 264.383 343.427 264.87C342.93 265.357 342.339 265.743 341.688 266.007C341.038 266.27 340.341 266.406 339.637 266.406Z" fill="white" stroke="#263238" stroke-linecap="round" stroke-linejoin="round"/>
                            <path d="M470.991 269.197H407.897C407.659 269.196 407.426 269.127 407.228 268.999C407.029 268.87 406.873 268.688 406.779 268.474L389.307 229.511C389.227 229.33 389.194 229.132 389.212 228.935C389.229 228.738 389.296 228.549 389.407 228.383C389.518 228.218 389.668 228.082 389.846 227.988C390.023 227.893 390.222 227.843 390.424 227.842H453.519C453.757 227.841 453.991 227.908 454.192 228.033C454.393 228.159 454.552 228.339 454.651 228.551L472.124 267.514C472.203 267.697 472.235 267.897 472.217 268.096C472.199 268.294 472.13 268.485 472.018 268.652C471.906 268.819 471.754 268.955 471.575 269.051C471.396 269.146 471.195 269.196 470.991 269.197Z" fill="white" stroke="#263238" stroke-linecap="round" stroke-linejoin="round"/>
                            <path d="M407.02 269.64H501.812V266.613H407.02V269.64Z" fill="white" stroke="#263238" stroke-linecap="round" stroke-linejoin="round"/>
                            <path d="M407.021 269.64H472.381V266.613H407.021V269.64Z" fill="white" stroke="#263238" stroke-linecap="round" stroke-linejoin="round"/>
                            <path d="M431.756 244.015C432.098 244.647 432.241 245.364 432.168 246.076C432.095 246.788 431.809 247.463 431.346 248.016C430.882 248.57 430.262 248.977 429.562 249.187C428.863 249.397 428.116 249.4 427.415 249.197C426.714 248.993 426.09 248.592 425.621 248.043C425.152 247.494 424.859 246.822 424.779 246.11C424.699 245.399 424.836 244.681 425.171 244.046C425.507 243.41 426.027 242.886 426.667 242.538C427.542 242.076 428.569 241.971 429.523 242.248C430.477 242.525 431.28 243.16 431.756 244.015Z" fill="white" stroke="#263238" stroke-linecap="round" stroke-linejoin="round"/>
                            <path d="M136.716 129.329L141.368 174.273L162.51 234.134L155.276 238.181L130.449 183.386L118.051 136.344C118.051 136.344 117.009 122.195 122.188 120.098C127.368 118 134.647 120.231 136.716 129.329Z" fill="white" stroke="#263238" stroke-linecap="round" stroke-linejoin="round"/>
                            <path d="M162.57 234.193C162.57 234.193 167.221 243.808 167.749 246.334C168.278 248.86 168.807 254.014 166.768 256.318C164.306 259.095 162.056 256.953 162.056 256.953C162.056 256.953 155.849 255.476 155.849 250.381C155.849 245.285 155.336 238.24 155.336 238.24L162.57 234.193Z" fill="white" stroke="#263238" stroke-linecap="round" stroke-linejoin="round"/>
                            <path d="M157.496 249.273L166.21 251.489" stroke="#263238" stroke-linecap="round" stroke-linejoin="round"/>
                            <path d="M159.58 243.528L162.057 247.338C162.057 247.338 156.288 256.983 159.384 254.457C162.479 251.932 168.263 248.859 167.75 246.334C166.875 243.684 165.721 241.129 164.307 238.713" fill="white"/>
                            <path d="M159.58 243.528L162.057 247.338C162.057 247.338 156.288 256.983 159.384 254.457C162.479 251.932 168.263 248.859 167.75 246.334C166.875 243.684 165.721 241.129 164.307 238.713" stroke="#263238" stroke-linecap="round" stroke-linejoin="round"/>
                            <path d="M111.995 75.3156C111.995 75.3156 106.679 69.7031 94.4166 73.3069C82.1541 76.9107 79.315 96.1113 79.6925 105.697C80.07 115.282 89.5086 126.094 86.6544 130.894C83.8001 135.694 73.1535 146.889 73.969 158.956C74.7845 171.023 85.0083 180.55 99.7324 176.148C114.456 171.747 111.995 154.127 109.065 147.687C106.135 141.247 112.342 138.485 114.381 124.484C116.42 110.482 103.342 98.888 103.342 88.8889C103.342 78.8899 113.913 80.4997 113.913 80.4997L111.995 75.3156Z" fill="#263238" stroke="#263238" stroke-linecap="round" stroke-linejoin="round"/>
                            <path d="M93.5704 113.274C95.5034 117.173 97.7536 121.338 99.9886 125.828C107.449 140.716 101.62 146.092 90.2783 154.334C78.9369 162.575 81.5344 172.707 84.449 174.273" stroke="white" stroke-width="0.5" stroke-linecap="round" stroke-linejoin="round"/>
                            <path d="M108.098 79.2593C108.098 79.2593 92.8758 80.5295 88.9795 90.0264C86.6237 95.8013 88.4359 102.27 91.9093 109.803" stroke="white" stroke-width="0.5" stroke-linecap="round" stroke-linejoin="round"/>
                            <path d="M96.9683 170.565C98.1394 170.996 99.3884 171.187 100.638 171.127" stroke="white" stroke-width="0.5" stroke-linecap="round" stroke-linejoin="round"/>
                            <path d="M111.994 78.2698C111.994 78.2698 97.7384 80.7954 94.5067 90.9274C91.2749 101.059 110.379 116.036 111.345 127.054C112.312 138.072 98.7049 144.512 93.8724 153.063C90.4745 159.06 90.8521 165.662 94.4312 168.985" stroke="white" stroke-width="0.5" stroke-linecap="round" stroke-linejoin="round"/>
                            <path d="M148.571 282.195C148.571 282.195 145.052 311.911 141.518 321.394C137.985 330.876 130.071 405.389 129.633 409.701C129.195 414.014 141.08 423.91 145.928 426.938C150.776 429.965 148.571 430.807 143.285 431.236C138 431.664 131.838 430.807 129.195 426.066C126.553 421.325 120.376 420.04 120.376 420.04L119.5 430.379H117.733L116.419 417.455C115.97 414.521 116.428 411.523 117.733 408.845C119.938 404.104 120.754 394.193 120.754 380.782C120.754 367.372 118.111 345.882 119.425 335.543C120.739 325.204 126.039 317.45 126.039 308.839C126.039 300.229 126.477 287.305 126.477 287.305L148.571 282.195Z" fill="white" stroke="#263238" stroke-linecap="round" stroke-linejoin="round"/>
                            <path d="M116.42 417.455C116.069 415.233 116.26 412.96 116.979 410.824C119.712 415.343 127.55 421.473 133.59 423.91C136.866 425.297 140.436 425.884 143.995 425.623C144.705 426.14 145.37 426.583 145.928 426.937C150.776 429.891 148.571 430.807 143.286 431.235C138 431.664 131.839 430.807 129.196 426.066C126.553 421.325 120.376 420.04 120.376 420.04L119.5 430.379H117.734L116.42 417.455Z" fill="#263238" stroke="#263238" stroke-linecap="round" stroke-linejoin="round"/>
                            <path d="M123.019 286.936C123.019 286.936 115.468 308.898 108.491 327.848C101.514 346.797 84.706 390.309 82.9391 398.063C81.1722 405.817 80.2963 420.04 75.3883 427.366C70.4803 434.692 65.693 438.133 66.5689 425.21C67.4448 412.286 75.3883 402.804 77.1401 392.893C78.8919 382.983 79.7829 347.24 85.9443 331.304C92.1058 315.367 98.7203 302.444 99.5358 297.703C100.138 292.985 100.431 288.234 100.412 283.48L123.019 286.936Z" fill="white" stroke="#263238" stroke-linecap="round" stroke-linejoin="round"/>
                            <path d="M67.4751 419.671C67.5402 422.107 68.3156 424.475 69.7101 426.494C72.2472 429.271 76.3397 423.88 78.4691 420.587C77.7724 422.962 76.7568 425.237 75.4487 427.351C70.6011 434.662 65.7535 438.118 66.6294 425.195C66.7751 423.336 67.0577 421.49 67.4751 419.671Z" fill="#263238" stroke="#263238" stroke-linecap="round" stroke-linejoin="round"/>
                            <path d="M119.546 113.569C119.546 113.569 116.903 115.726 115.136 130.377C113.369 145.029 124.393 190.682 124.393 190.682C124.393 190.682 105.456 221.019 101.046 236.099C96.6364 251.178 93.9937 307.672 93.9937 307.672C93.9937 307.672 103.251 311.128 122.188 312.413C141.126 313.698 151.259 308.972 151.259 308.972C151.259 308.972 152.135 228.344 152.135 215.923C152.135 203.502 153.026 175.247 154.34 171.806C155.654 168.365 159.625 159.311 159.625 155.87C159.625 152.428 133.137 115.726 133.137 115.726L119.546 113.569Z" fill="white" stroke="#263238" stroke-linecap="round" stroke-linejoin="round"/>
                            <path d="M101.001 236.099C104.474 224.283 118.851 192.853 123.986 187.447C131.793 189.988 146.034 192.498 152.392 190.638C152.195 195.068 152.09 211.61 152.09 215.849C152.09 228.344 151.214 308.898 151.214 308.898C151.214 308.898 141.081 313.639 122.143 312.34C103.206 311.04 93.9485 307.599 93.9485 307.599C93.9485 307.599 96.5913 251.178 101.001 236.099Z" fill="#263238" stroke="#263238" stroke-linecap="round" stroke-linejoin="round"/>
                            <path d="M129.316 62.7912C129.316 62.7912 134.043 52.7183 143.391 52.7183C152.739 52.7183 156.891 60.8416 154.823 67.9458C152.754 75.05 161.044 73.0266 162.086 77.6052C163.128 82.1838 155.336 85.2115 151.183 85.2115C147.03 85.2115 129.316 62.7912 129.316 62.7912Z" fill="#263238" stroke="#263238" stroke-linecap="round" stroke-linejoin="round"/>
                            <path d="M142.968 61.7574C145.746 60.2804 149.008 59.217 150.519 61.5211C153.433 65.952 144.372 69.4376 147.287 74.1934C150.201 78.9493 157.329 77.6791 156.997 79.2594C156.665 80.8398 152.15 81.7851 152.15 81.7851" stroke="white" stroke-width="0.5" stroke-linecap="round" stroke-linejoin="round"/>
                            <path d="M138.211 64.9771C138.211 64.9771 139.102 64.2238 140.431 63.3081" stroke="white" stroke-width="0.5" stroke-linecap="round" stroke-linejoin="round"/>
                            <path d="M153.283 86.2308C152.621 85.7503 152.101 85.1086 151.772 84.3699C151.017 78.9199 149.386 73.5585 146.306 70.5455C141.645 66.2546 135.701 63.5371 129.346 62.7914C127.465 62.5201 125.544 62.6923 123.744 63.2935C115.725 66.0407 108.838 71.4612 110.318 84.5323C111.949 98.9328 123.411 102.537 123.411 102.537L124.227 111.398L135.674 116.597L136.082 106.997C136.082 106.997 143.844 110.187 146.653 109.788C149.462 109.39 150.338 105.786 151.561 100.587C152.01 98.2147 152.232 95.8067 152.225 93.3941L155.653 90.0562C157.602 88.1214 155.684 87.6487 153.283 86.2308Z" fill="white" stroke="#263238" stroke-linecap="round" stroke-linejoin="round"/>
                            <path d="M110.288 84.5323C108.778 71.4612 115.695 66.0407 123.714 63.2935C125.514 62.6923 127.434 62.5201 129.316 62.7914C133.649 63.3579 137.82 64.7746 141.579 66.9564C139.283 66.4986 143.195 73.1006 139.6 77.2952C136.453 81.1891 132.44 84.3308 127.866 86.4819C127.866 86.4819 123.789 83.2769 122.551 87.6783C121.312 92.0796 121.735 95.2699 125.012 96.0822C128.289 96.8946 129.543 96.0822 129.543 96.0822C129.543 96.0822 127.368 101.119 123.502 103.201V102.477C123.502 102.477 111.995 98.9475 110.288 84.5323Z" fill="#263238" stroke="#263238" stroke-linecap="round" stroke-linejoin="round"/>
                            <path d="M141.518 113.998L139.329 125.636L115.981 113.569L118.186 102.802L141.518 113.998Z" fill="white" stroke="#263238" stroke-linecap="round" stroke-linejoin="round"/>
                            <path d="M130.237 212.127C132.655 212.633 135.109 212.959 137.577 213.102C139.495 212.984 142.107 210.872 144.04 211.773C145.973 212.674 148.676 218.36 148.676 218.36C148.676 218.36 151.244 219.63 150.504 220.974C149.764 222.318 146.592 223.559 146.592 223.559C146.592 223.559 143.572 226.35 141.82 226.631C140.068 226.912 129.392 219.246 129.392 219.246L130.237 212.127Z" fill="white" stroke="#263238" stroke-linecap="round" stroke-linejoin="round"/>
                            <path d="M131.37 217.651C131.723 217.236 131.977 216.748 132.113 216.224C132.249 215.701 132.263 215.154 132.154 214.624C132.046 214.094 131.817 213.595 131.485 213.163C131.154 212.731 130.727 212.377 130.237 212.127L100.895 185.246L132.85 136.654C134.276 134.085 134.622 131.073 133.815 128.259C133.008 125.444 131.112 123.047 128.528 121.577C125.945 120.107 122.877 119.68 119.976 120.385C117.076 121.09 114.57 122.873 112.991 125.355L85.2949 179.191C83.8548 180.557 83.0222 182.423 82.977 184.385C82.9318 186.348 83.6776 188.248 85.0532 189.677L85.1589 189.781C87.9376 193.975 118.503 215.908 127.444 218.773C128.138 218.989 128.882 218.997 129.581 218.797C130.281 218.597 130.903 218.198 131.37 217.651Z" fill="white" stroke="#263238" stroke-linecap="round" stroke-linejoin="round"/>
                            <path d="M247.473 143.257C247.473 143.257 251.263 154.733 251.263 156.963C251.235 158.574 251.109 160.182 250.886 161.778L254.223 166.844C254.419 167.17 254.479 167.556 254.392 167.925C254.305 168.293 254.077 168.614 253.755 168.823L248.605 171.777C248.605 171.777 247.85 183.593 247.095 185.07C246.34 186.547 233.504 186.192 233.504 186.192L229.336 193.961L207.74 185.823L213.418 170.625L212.241 147.688C212.241 147.688 225.5 136.226 247.473 143.257Z" fill="white" stroke="#263238" stroke-linecap="round" stroke-linejoin="round"/>
                            <path d="M232.688 171.171C232.688 171.171 228.928 174.627 226.104 174.864C223.28 175.1 214.098 173.017 213.388 172.102C212.678 171.186 206.336 158.292 206.562 152.074C206.789 145.856 207.046 136.654 213.856 133.671C220.667 130.687 231.51 131.588 237.158 128.147C242.806 124.706 251.746 121.929 256.458 127.911C261.17 133.892 257.636 142.178 253.876 145.634C250.115 149.09 245.404 150.065 245.872 151.542C246.34 153.019 249.164 154.762 247.518 157.066C245.872 159.37 239.967 161.497 239.967 162.354C239.967 163.21 241.387 166.504 239.741 166.962C238.095 167.42 236.433 163.742 234.787 163.742C233.141 163.742 229.638 168.188 232.688 171.171Z" fill="#263238" stroke="#263238" stroke-linecap="round" stroke-linejoin="round"/>
                            <path d="M222.857 160.611C222.179 161.353 221.6 162.177 221.136 163.063" stroke="white" stroke-width="0.5" stroke-linecap="round" stroke-linejoin="round"/>
                            <path d="M253.784 136.758C253.486 139.293 252.541 141.714 251.037 143.799C249.533 145.884 247.518 147.566 245.177 148.692C239.136 151.749 231.087 154.245 225.741 158.085" stroke="white" stroke-width="0.5" stroke-linecap="round" stroke-linejoin="round"/>
                            <path d="M245.872 151.616C245.872 151.616 240.511 156.047 234.772 160.611C230.856 163.575 226.503 165.941 221.86 167.627" stroke="white" stroke-width="0.5" stroke-linecap="round" stroke-linejoin="round"/>
                            <path d="M232.31 171.792L235.331 172.53C235.148 173.911 235.256 175.314 235.648 176.652C236.04 177.991 236.708 179.237 237.611 180.314" fill="white"/>
                            <path d="M232.31 171.792L235.331 172.53C235.148 173.911 235.256 175.314 235.648 176.652C236.04 177.991 236.708 179.237 237.611 180.314" stroke="#263238" stroke-linecap="round" stroke-linejoin="round"/>
                            <path d="M235.814 163.86L257.137 158.691" stroke="#263238" stroke-linecap="round" stroke-linejoin="round"/>
                            <path d="M251.655 158.277L256.518 158.484C256.518 158.484 258.194 163.86 253.135 164.481" stroke="#263238" stroke-linecap="round" stroke-linejoin="round"/>
                            <path d="M230.15 413.63C230.15 413.63 249.782 425.756 253.241 425.756C256.699 425.756 258.421 428.799 256.699 429.138C254.977 429.478 244.285 429.803 237.067 430.143C229.848 430.482 224.986 429.803 220.863 429.803C216.74 429.803 211.892 430.143 209.824 429.138C207.755 428.134 211.213 416.658 211.213 414.635C211.213 412.611 227.734 412.271 230.15 413.63Z" fill="#263238" stroke="#263238" stroke-linecap="round" stroke-linejoin="round"/>
                            <path d="M255.461 426.258C247.835 428.71 235.467 427.1 228.037 426.436C222.162 425.919 212.935 425.801 209.175 425.771C209.024 427.499 209.175 428.814 209.764 429.138C211.833 430.143 216.665 429.803 220.803 429.803C224.941 429.803 229.758 430.483 237.007 430.143C244.256 429.803 254.933 429.463 256.639 429.138C257.983 428.873 257.349 427.13 255.461 426.258Z" fill="white" stroke="#263238" stroke-linecap="round" stroke-linejoin="round"/>
                            <path d="M245.661 330.329L230.167 406.319L233.399 414.206C231.079 417.491 227.58 419.801 223.598 420.675C219.169 421.527 214.67 421.982 210.157 422.034C210.157 422.034 208.436 413.601 209.478 412.582C210.52 411.563 210.852 407.53 210.852 407.53L219.807 330.994L245.661 330.329Z" fill="#FFCB73" stroke="#263238" stroke-linecap="round" stroke-linejoin="round"/>
                            <path d="M292.883 411.06C292.883 411.06 304.964 420.838 310.476 422.522C315.988 424.205 321.848 425.889 321.848 427.573C321.848 429.257 308.755 430.94 298.757 429.936C288.76 428.932 273.583 424.545 270.14 424.545C266.697 424.545 267.376 415.772 267.376 414.428C267.376 413.084 284.275 402.287 292.883 411.06Z" fill="#263238" stroke="#263238" stroke-linecap="round" stroke-linejoin="round"/>
                            <path d="M321.909 427.573C321.909 426.967 321.138 426.362 319.915 425.756C310.047 427.047 300.043 426.978 290.195 425.549C280.273 424.161 271.967 422.3 267.724 421.266C268.086 423.083 268.796 424.545 270.201 424.545C273.644 424.545 288.821 428.976 298.818 429.936C308.815 430.896 321.909 429.256 321.909 427.573Z" fill="white" stroke="#263238" stroke-linecap="round" stroke-linejoin="round"/>
                            <path d="M232.915 296.271C243.252 295.497 253.642 295.724 263.934 296.95C281.512 298.973 320.791 301.381 321.471 305.723C322.15 310.065 290.996 401.327 290.996 403.676C290.996 406.024 293.744 408.402 294.439 409.746C294.877 410.704 295.113 411.739 295.134 412.788C295.134 412.788 286.692 421.65 280.138 424.058C273.583 426.465 268.056 424.205 266.697 424.205C265.338 424.205 265.323 415.107 266.365 410.721C267.407 406.334 269.113 395.213 269.461 394.208C269.808 393.204 288.685 328.306 288.685 328.306C288.685 328.306 237.34 336.4 206.668 333.017C175.997 329.635 172.886 324.938 171.164 317.849C169.443 310.76 172.886 296.61 172.886 296.61L232.915 296.271Z" fill="#FFCB73" stroke="#263238" stroke-linecap="round" stroke-linejoin="round"/>
                            <path d="M229.033 318.115C228.336 319.101 227.559 320.029 226.708 320.892" stroke="#263238" stroke-linecap="round" stroke-linejoin="round"/>
                            <path d="M238.427 299.978C236.445 304.832 234.161 309.562 231.586 314.142" stroke="#263238" stroke-linecap="round" stroke-linejoin="round"/>
                            <path d="M234.318 303.36C230.159 310.071 223.861 315.26 216.393 318.13" stroke="#263238" stroke-linecap="round" stroke-linejoin="round"/>
                            <path d="M312.575 321.97C313.753 321.527 314.886 321.069 315.958 320.596L312.575 321.97Z" fill="white"/>
                            <path d="M312.575 321.97C313.753 321.527 314.886 321.069 315.958 320.596" stroke="#263238" stroke-linecap="round" stroke-linejoin="round"/>
                            <path d="M288.685 328.306C295.318 327.053 301.873 325.431 308.317 323.447L288.685 328.306Z" fill="white"/>
                            <path d="M288.685 328.306C295.318 327.053 301.873 325.431 308.317 323.447" stroke="#263238" stroke-linecap="round" stroke-linejoin="round"/>
                            <path d="M328.538 216.337C329.263 213.516 330.471 213.738 329.504 212.807C328.175 211.507 327.103 213.043 323.252 215.155C319.401 217.268 315.565 219.852 315.565 219.852C315.65 219.068 315.982 218.33 316.517 217.74C317.49 216.183 318.013 214.396 318.027 212.571C318.027 211.094 316.819 211.389 316.336 212.807C315.852 214.225 311.533 216.795 311.292 217.976C311.05 219.158 310.189 223.796 310.189 223.796C308.815 225.819 308.815 235.257 308.815 235.257L280.832 255.816L266.697 272.063C266.697 272.063 272.903 281.841 276.346 280.497C279.79 279.152 281.511 277.794 289.787 271.044C296.794 265.328 314.357 238.964 314.357 238.964C317.417 237.085 320.311 234.961 323.011 232.613C326.125 229.167 327.965 224.798 328.236 220.207C328.171 218.91 328.272 217.61 328.538 216.337Z" fill="white" stroke="#263238" stroke-linecap="round" stroke-linejoin="round"/>
                            <path d="M199.057 185.143C199.057 185.143 201.714 175.395 213.01 177.345C224.306 179.295 232.945 188.393 234.938 191.642C236.931 194.891 198.392 190.342 198.392 190.342L199.057 185.143Z" fill="white" stroke="#263238" stroke-linecap="round" stroke-linejoin="round"/>
                            <path d="M264.174 270.276C264.174 270.276 261.547 273.052 264.174 277.424C265.972 280.452 269.143 282.771 275.214 281.752C280.892 280.777 289.424 266.982 289.424 257.278C289.424 247.575 282.115 246.94 279.457 248.83C276.799 250.721 264.174 270.276 264.174 270.276Z" fill="white" stroke="#263238" stroke-linecap="round" stroke-linejoin="round"/>
                            <path d="M203.949 184.006C203.949 184.006 177.068 196.486 173.278 198.776C169.487 201.065 167.071 230.457 167.071 235.523C167.071 240.589 170.862 290.171 171.888 298.56C172.915 306.949 206.018 312.724 217.057 309.681C228.097 306.639 238.849 298.973 238.849 296.27C238.849 293.568 237.807 270.66 238.502 266.273C239.196 261.887 245.388 243.351 245.388 243.351L264.205 272.713C264.205 272.713 266.183 276.317 273.175 273.481C283.172 269.434 284.003 253.793 284.003 253.793C284.003 253.793 272.979 234.917 269.868 225.479C266.757 216.042 265.337 208.952 264.008 207.268C262.68 205.585 231.6 191.421 226.088 187.713C222.967 185.414 219.33 183.878 215.478 183.233C211.627 182.589 207.674 182.853 203.949 184.006Z" fill="white" stroke="#263238" stroke-linecap="round" stroke-linejoin="round"/>
                            <path d="M245.313 243.351L236.357 230.531" stroke="#263238" stroke-linecap="round" stroke-linejoin="round"/>
                            <path d="M243.863 241.519L228.082 233.913" stroke="#263238" stroke-linecap="round" stroke-linejoin="round"/>
                            <path d="M197.094 338.216L210.866 433.953C210.898 434.175 210.977 434.388 211.097 434.579C211.218 434.769 211.378 434.933 211.567 435.059C211.756 435.186 211.97 435.272 212.195 435.313C212.42 435.354 212.652 435.349 212.875 435.297C213.262 435.204 213.602 434.979 213.834 434.662C214.067 434.345 214.176 433.958 214.143 433.569L204.433 336.636L197.094 338.216Z" fill="#263238" stroke="#263238" stroke-linecap="round" stroke-linejoin="round"/>
                            <path d="M157.527 338.969L134.512 432.993C134.459 433.211 134.454 433.438 134.496 433.658C134.538 433.878 134.626 434.087 134.755 434.272C134.885 434.457 135.052 434.614 135.247 434.732C135.441 434.85 135.659 434.927 135.886 434.958C136.28 435.015 136.681 434.929 137.015 434.717C137.349 434.505 137.592 434.181 137.698 433.806L164.428 342.559L157.527 338.969Z" fill="#263238" stroke="#263238" stroke-linecap="round" stroke-linejoin="round"/>
                            <path d="M199.328 337.802L184.679 433.407C184.645 433.627 184.658 433.852 184.717 434.067C184.776 434.282 184.879 434.484 185.021 434.658C185.162 434.833 185.339 434.977 185.54 435.082C185.741 435.186 185.962 435.25 186.189 435.268C186.586 435.289 186.978 435.169 187.291 434.93C187.605 434.691 187.82 434.349 187.896 433.968L206.486 340.801L199.328 337.802Z" fill="#263238" stroke="#263238" stroke-linecap="round" stroke-linejoin="round"/>
                            <path d="M251.188 338.216L264.96 433.953C264.992 434.175 265.071 434.388 265.191 434.578C265.312 434.769 265.472 434.932 265.661 435.059C265.85 435.186 266.064 435.272 266.289 435.313C266.515 435.354 266.746 435.349 266.969 435.297C267.356 435.204 267.696 434.978 267.929 434.662C268.161 434.345 268.271 433.958 268.238 433.569L258.482 336.606L251.188 338.216Z" fill="#263238" stroke="#263238" stroke-linecap="round" stroke-linejoin="round"/>
                            <path d="M135.736 238.861L152.499 345.454H271.711C271.711 345.454 273.478 314.733 268.222 303.877C262.967 293.021 198.075 316.298 195.735 315.693C193.998 315.264 196.565 260.233 199.752 238.728C199.975 237.214 199.862 235.671 199.422 234.204C198.981 232.736 198.223 231.378 197.199 230.223C196.175 229.067 194.909 228.14 193.486 227.505C192.063 226.87 190.518 226.542 188.954 226.543H146.518C144.942 226.541 143.385 226.874 141.953 227.518C140.521 228.161 139.249 229.101 138.224 230.272C137.2 231.442 136.446 232.816 136.017 234.299C135.587 235.782 135.491 237.338 135.736 238.861Z" fill="#FFCB73" stroke="#263238" stroke-linecap="round" stroke-linejoin="round"/>
                            <path d="M268.222 303.877C262.967 293.021 198.075 316.298 195.734 315.693C193.998 315.264 196.565 260.233 199.751 238.728C200.03 237.233 199.968 235.697 199.571 234.229C199.173 232.76 198.45 231.395 197.452 230.231C196.454 229.067 195.206 228.132 193.796 227.494C192.387 226.855 190.851 226.528 189.298 226.536C187.745 226.543 186.212 226.886 184.81 227.538C183.407 228.191 182.169 229.138 181.183 230.312C180.197 231.486 179.488 232.858 179.105 234.33C178.723 235.803 178.678 237.34 178.972 238.831L195.734 345.424H271.711C271.711 345.424 273.478 314.733 268.222 303.877Z" fill="#263238" stroke="#263238" stroke-linecap="round" stroke-linejoin="round"/>
                            <path d="M328.539 216.337C328.539 216.337 326.621 218.213 323.736 221.506L328.539 216.337Z" fill="white"/>
                            <path d="M328.539 216.337C328.539 216.337 326.621 218.213 323.736 221.506" stroke="#263238" stroke-linecap="round" stroke-linejoin="round"/>
                            <path d="M328.236 220.147C328.236 220.147 325.895 224.8 324.46 226.912L328.236 220.147Z" fill="white"/>
                            <path d="M328.236 220.147C328.236 220.147 325.895 224.8 324.46 226.912" stroke="#263238" stroke-linecap="round" stroke-linejoin="round"/>
                            <path d="M5.31722 274.027C7.82409 275.091 13.9403 274.958 13.9554 274.958C13.9705 274.958 12.6415 271.044 12.5207 270.808C11.1767 268.046 6.91799 263.511 3.45972 263.969C2.88723 264.06 2.34088 264.269 1.85635 264.581C1.37182 264.892 0.960029 265.301 0.647885 265.779C0.335741 266.257 0.130271 266.794 0.0449003 267.355C-0.0404708 267.916 -0.0038221 268.489 0.152455 269.035C0.726317 271.369 3.17278 273.112 5.31722 274.027Z" fill="#263238"/>
                            <path d="M85.5819 253.63C82.1086 253.261 78.0311 257.913 76.7173 260.705C76.6115 260.941 75.343 264.899 75.4034 264.899C74.7389 265.623 74.0443 266.376 73.3043 267.292C71.9451 268.917 70.435 270.778 68.9097 272.905C67.2669 275.184 65.7544 277.551 64.3792 279.994C62.8292 282.734 61.5256 285.6 60.483 288.56C60.4896 288.595 60.4896 288.63 60.483 288.664C60.483 287.674 60.483 284.868 60.483 284.661C60.0753 281.633 57.4627 276.021 54.0497 275.401C53.4811 275.311 52.8996 275.339 52.3427 275.482C51.7857 275.626 51.2657 275.882 50.8161 276.234C50.3665 276.586 49.9973 277.026 49.7323 277.526C49.4673 278.026 49.3124 278.575 49.2776 279.137C49.0662 281.545 50.7878 283.952 52.5849 285.459C54.5481 287.172 59.9846 288.826 60.4226 288.959C59.4351 292.029 58.6681 295.163 58.1272 298.338C57.7798 300.169 57.508 302.016 57.2513 303.877C57.2513 303.005 57.2513 302.237 57.2513 302.134C56.8586 299.106 54.2309 293.493 50.8331 292.873C50.26 292.786 49.6745 292.817 49.1146 292.965C48.5547 293.113 48.0328 293.374 47.5828 293.732C47.1328 294.09 46.7648 294.536 46.5026 295.042C46.2404 295.548 46.09 296.102 46.0609 296.669C45.8646 299.076 47.5711 301.484 49.3833 303.005C51.1955 304.526 55.7411 306.048 56.9341 306.417C56.8435 307.141 56.7378 307.894 56.6472 308.559C56.2394 311.985 55.8317 315.412 55.3334 318.75C55.1521 319.931 54.9407 321.083 54.7293 322.235C54.7293 321.467 54.7293 320.832 54.7293 320.758C54.3215 317.731 51.709 312.118 48.296 311.498C47.7229 311.412 47.1378 311.446 46.5787 311.595C46.0195 311.745 45.4989 312.008 45.0504 312.368C44.6018 312.727 44.2355 313.174 43.9752 313.681C43.7148 314.187 43.5662 314.742 43.539 315.308C43.3426 317.701 45.0491 320.108 46.8613 321.63C49.1162 323.087 51.5863 324.198 54.1856 324.923C53.9289 326.105 53.6722 327.272 53.3701 328.409C53.1436 329.177 52.9926 329.886 52.7208 330.684C52.4489 331.481 52.2224 332.161 51.9808 332.929C51.4522 334.332 50.9237 335.794 50.38 337.153C50.0025 338.113 49.6249 339.014 49.2625 339.915C49.4437 338.748 49.7608 336.444 49.776 336.252C49.7334 333.568 48.99 330.939 47.6164 328.616C47.6538 328.322 47.6538 328.024 47.6164 327.73C47.548 327.161 47.3565 326.613 47.0548 326.123C46.7531 325.632 46.348 325.21 45.8666 324.885C45.3851 324.559 44.8383 324.338 44.2625 324.235C43.6868 324.132 43.0952 324.15 42.5272 324.288C39.1444 325.16 37.0151 330.949 36.8489 333.992C36.8489 334.169 36.9698 336.134 37.0604 337.374C36.8943 336.65 36.7281 335.897 36.5469 335.218C36.1996 333.741 35.7918 332.264 35.3841 330.787C35.1425 330.034 34.9159 329.31 34.6743 328.527C34.4327 327.744 34.1306 327.05 33.8588 326.223C33.1943 324.436 32.4393 322.664 31.6238 320.891C32.9225 320.581 37.5436 319.414 39.4011 318.041C41.2586 316.667 43.2067 314.378 43.1916 311.97C43.2096 311.397 43.1022 310.826 42.8767 310.297C42.6511 309.767 42.3127 309.291 41.8838 308.899C41.455 308.508 40.9457 308.21 40.39 308.027C39.8342 307.843 39.2448 307.778 38.6611 307.835C35.1878 308.204 32.1674 313.61 31.5483 316.593C31.5483 316.785 31.2915 318.971 31.2009 320.182C30.7177 319.119 30.2193 318.055 29.6908 316.992C28.1806 313.95 26.459 310.892 24.8129 307.85L23.3028 305.043C23.7709 304.94 29.3434 303.699 31.3671 302.089C33.3907 300.48 35.1727 298.441 35.1576 296.019C35.173 295.446 35.064 294.877 34.8377 294.348C34.6113 293.82 34.2728 293.345 33.8445 292.954C33.4162 292.563 32.9079 292.265 32.3533 292.081C31.7986 291.896 31.2102 291.829 30.6271 291.884C27.1537 292.253 24.1485 297.659 23.5142 300.642C23.5142 300.878 23.1669 304.024 23.1367 304.837C22.0493 302.784 20.9771 300.716 20.0106 298.648C18.6838 295.853 17.5437 292.977 16.5977 290.037C16.8091 290.037 22.6383 288.708 24.7223 287.083C26.5647 285.695 28.5279 283.421 28.4977 281.013C28.5157 280.44 28.4083 279.869 28.1828 279.34C27.9573 278.81 27.6188 278.334 27.1899 277.942C26.7611 277.551 26.2518 277.253 25.6961 277.07C25.1403 276.886 24.5509 276.821 23.9672 276.878C20.4939 277.247 17.4886 282.653 16.8544 285.636C16.8544 285.872 16.4919 289.269 16.4768 289.89C16.4768 289.712 16.356 289.55 16.2956 289.373C15.4373 286.401 14.8461 283.362 14.5287 280.289C14.3475 278.591 14.2569 276.966 14.1965 275.371C15.2989 275.238 20.2371 274.588 22.3967 273.362C24.5562 272.137 26.5949 270.128 26.9272 267.735C27.0058 267.173 26.9627 266.601 26.8007 266.057C26.6388 265.512 26.3615 265.007 25.987 264.574C25.6125 264.14 25.1491 263.789 24.6269 263.543C24.1046 263.296 23.5351 263.159 22.9554 263.142C19.4519 263.142 15.8577 268.193 14.8912 271.088C14.8912 271.25 14.4985 272.905 14.2569 274.116C14.2569 273.407 14.2569 272.639 14.2569 271.974C14.2569 269.389 14.423 267.026 14.5891 264.944C14.6948 263.747 14.8157 262.669 14.9365 261.665C15.9483 260.985 19.9804 258.209 21.2188 256.215C22.4571 254.221 23.4236 251.459 22.5175 249.214C22.323 248.681 22.0158 248.194 21.616 247.784C21.2162 247.375 20.7328 247.053 20.1972 246.838C19.6615 246.623 19.0857 246.522 18.5072 246.539C17.9286 246.557 17.3603 246.693 16.8393 246.94C13.7283 248.505 12.9129 254.605 13.4263 257.618C13.4263 257.869 14.6495 261.857 14.6948 261.827C14.5589 262.787 14.423 263.821 14.3022 264.958C14.0908 267.056 13.8794 269.389 13.8039 272.018C13.7128 274.807 13.7834 277.598 14.0153 280.378C14.2377 283.498 14.7431 286.592 15.5254 289.624C15.532 289.658 15.532 289.693 15.5254 289.727C14.9818 288.885 13.3659 286.581 13.2149 286.419C11.1762 284.115 5.84529 280.821 2.64374 282.165C2.11587 282.399 1.64441 282.74 1.26011 283.164C0.875815 283.588 0.587328 284.087 0.413472 284.628C0.239617 285.169 0.184299 285.739 0.251133 286.302C0.317966 286.865 0.505448 287.408 0.801342 287.896C1.99437 290.008 4.83348 291.057 7.14403 291.381C9.74151 291.751 15.2083 290.2 15.6463 290.082C16.5445 293.143 17.6493 296.143 18.9535 299.062C19.7086 300.76 20.4637 302.459 21.3547 304.142C20.8563 303.419 20.4033 302.784 20.3429 302.665C18.3041 300.361 12.9733 297.068 9.77172 298.412C9.25276 298.67 8.79571 299.034 8.43069 299.478C8.06567 299.921 7.80096 300.436 7.654 300.987C7.50704 301.538 7.48116 302.114 7.57807 302.675C7.67498 303.237 7.89248 303.772 8.21624 304.246C9.39417 306.358 12.2484 307.407 14.5438 307.731C16.8393 308.056 21.5661 306.845 22.8044 306.491C23.1367 307.141 23.4538 307.791 23.786 308.426C25.2962 311.512 26.9725 314.585 28.4373 317.642C28.9508 318.72 29.4189 319.798 29.9475 320.877L29.0565 319.636C27.0178 317.332 21.6869 314.053 18.4854 315.382C17.9583 315.619 17.4881 315.962 17.1053 316.388C16.7225 316.815 16.4356 317.315 16.2633 317.857C16.091 318.399 16.0371 318.97 16.1051 319.533C16.1731 320.097 16.3615 320.64 16.6581 321.128C17.8511 323.24 20.6902 324.288 22.9856 324.613C25.7147 324.624 28.4293 324.225 31.0348 323.432C31.4879 324.554 31.9409 325.677 32.3185 326.77C32.5752 327.538 32.8621 328.247 33.0584 329.029C33.2548 329.812 33.4964 330.506 33.7078 331.304C34.0702 332.781 34.4478 334.258 34.7649 335.735C34.9914 336.724 35.1878 337.684 35.3841 338.689C34.8706 337.611 33.8739 335.513 33.738 335.351C32.0768 332.766 27.3198 328.734 23.937 329.576C23.3804 329.733 22.8637 330.003 22.4204 330.368C21.9771 330.733 21.6171 331.184 21.3637 331.694C21.1103 332.204 20.9692 332.76 20.9494 333.326C20.9296 333.892 21.0317 334.456 21.249 334.982C22.0946 337.241 24.7374 338.703 26.9574 339.412C29.4189 340.136 34.8404 339.412 35.52 339.412C35.8522 340.993 36.1392 342.544 36.411 344.006C37.3171 349.072 37.9212 353.34 38.2383 356.309C38.2383 356.841 38.3591 357.313 38.4044 357.786H27.8333L31.6691 430.999H49.5796L53.4154 357.786H43.6145L43.841 357.358C45.1851 354.61 47.0425 350.682 49.0511 345.867C49.7004 344.39 50.3498 342.721 50.9992 341.037C51.6637 341.17 57.0398 342.233 59.5316 341.672C61.812 341.17 64.5604 339.915 65.5723 337.729C65.8305 337.221 65.9761 336.665 65.9997 336.098C66.0232 335.531 65.9241 334.965 65.7089 334.438C65.4937 333.911 65.1671 333.435 64.7506 333.04C64.3341 332.645 63.8371 332.34 63.2919 332.146C59.9846 331.053 54.9407 334.73 53.0832 337.182C52.9775 337.33 51.9657 339.028 51.3465 340.136L52.1469 338.068C52.6755 336.665 53.1587 335.233 53.6571 333.711L54.3366 331.452C54.5934 330.698 54.7595 329.886 54.9709 329.088C55.4089 327.242 55.7713 325.352 56.1035 323.432C57.357 323.875 61.8724 325.411 64.198 325.248C66.5237 325.086 69.4383 324.259 70.7823 322.294C71.123 321.828 71.3586 321.296 71.4734 320.734C71.5882 320.172 71.5796 319.593 71.4483 319.034C71.3169 318.476 71.0658 317.951 70.7115 317.495C70.3571 317.038 69.9077 316.66 69.393 316.387C66.3726 314.91 60.7246 317.716 58.5198 319.857C58.3839 320.005 57.0096 321.718 56.2243 322.678C56.4056 321.526 56.5868 320.374 56.7378 319.193C57.1758 315.81 57.4929 312.369 57.8402 308.943C57.9459 307.894 58.0667 306.845 58.1725 305.797C58.6255 305.959 63.9413 307.894 66.5539 307.717C68.8644 307.554 71.779 306.727 73.1231 304.763C73.4638 304.296 73.6993 303.765 73.8141 303.203C73.9289 302.641 73.9204 302.061 73.789 301.503C73.6577 300.944 73.4065 300.419 73.0522 299.963C72.6979 299.506 72.2485 299.129 71.7337 298.855C68.7134 297.304 63.0805 300.184 60.8605 302.326C60.6944 302.488 58.6708 304.97 58.1876 305.619C58.4443 303.315 58.7161 301.026 59.0786 298.766C59.5435 295.723 60.2145 292.713 61.0871 289.757C61.2985 289.757 66.8257 291.869 69.5138 291.692C71.8243 291.529 74.739 290.687 76.083 288.738C76.4261 288.272 76.6637 287.74 76.7798 287.178C76.896 286.615 76.888 286.035 76.7565 285.476C76.625 284.917 76.3729 284.391 76.0172 283.935C75.6615 283.479 75.2102 283.102 74.6936 282.83C71.6733 281.264 66.0404 284.144 63.8205 286.301C63.6543 286.463 61.4797 289.136 61.1173 289.639L61.2532 289.122C62.212 286.176 63.435 283.32 64.9078 280.585C65.7082 279.108 66.5539 277.631 67.3996 276.302C68.3963 276.789 72.957 278.96 75.3732 279.049C77.7895 279.137 80.689 278.62 82.2596 276.759C82.6328 276.335 82.9116 275.84 83.0783 275.304C83.245 274.769 83.2958 274.205 83.2276 273.649C83.1595 273.094 82.9737 272.558 82.6823 272.076C82.3908 271.595 82 271.178 81.5347 270.852C78.6201 268.961 72.7757 271.221 70.3444 273.126C70.2085 273.23 68.9701 274.426 68.0942 275.312C68.4869 274.706 68.8795 274.071 69.2722 273.51C70.7823 271.354 72.2019 269.478 73.5308 267.809C74.2859 266.879 75.041 266.051 75.6601 265.283C76.8834 265.283 81.8216 265.106 83.9811 264.117C86.1407 263.127 88.5116 261.34 89.01 258.992C89.2188 258.419 89.2924 257.807 89.2253 257.202C89.1581 256.597 88.9519 256.015 88.6222 255.5C88.2924 254.984 87.8476 254.548 87.3211 254.224C86.7946 253.9 86.2001 253.697 85.5819 253.63ZM47.1483 344.833C45.0491 349.559 43.1161 353.414 41.7419 356.087L40.9717 357.564H40.7452C40.7452 357.047 40.5942 356.471 40.5035 355.836C40.0807 352.882 39.4162 348.54 38.3742 343.445C38.0571 341.835 37.6795 340.121 37.2718 338.364C38.904 337.72 40.4973 336.985 42.0439 336.163C44.1448 337.947 46.4876 339.438 49.0058 340.594C48.3866 342.027 47.7523 343.474 47.1483 344.833Z" fill="#263238"/>
                            <path d="M67.2944 275.342C67.2944 275.342 68.4119 271.369 68.4421 271.103C68.88 268.075 67.8984 262.005 64.7422 260.513C64.2177 260.284 63.6502 260.163 63.0756 260.16C62.5011 260.157 61.9322 260.271 61.4051 260.495C60.8781 260.718 60.4044 261.047 60.0144 261.46C59.6243 261.872 59.3263 262.36 59.1395 262.891C58.2938 265.151 59.366 267.927 60.6496 269.847C62.1598 272.151 67.2944 275.342 67.2944 275.342Z" fill="#263238"/>
                            <path d="M635.916 430.645H21.6567V438H635.916V430.645Z" fill="#263238"/>
                        </svg>